<svg width="70" height="71" viewBox="0 0 70 71" fill="none" xmlns="http://www.w3.org/2000/svg">
<rect y="0.0959473" width="70" height="70" rx="35" fill="#FFBE1B" fill-opacity="0.1"/>
<path fill-rule="evenodd" clip-rule="evenodd" d="M22.8136 24.1999V45.5259C22.8136 48.0497 24.8596 50.0957 27.3834 50.0957H42.6162C45.1401 50.0957 47.1861 48.0497 47.1861 45.5259V30.2931C47.1861 27.7692 45.1401 25.7232 42.6162 25.7232H24.3369C23.4956 25.7232 22.8136 25.0412 22.8136 24.1999ZM27.7643 34.8629C27.7643 34.2319 28.2758 33.7204 28.9067 33.7204H41.093C41.7239 33.7204 42.2354 34.2319 42.2354 34.8629C42.2354 35.4939 41.7239 36.0054 41.093 36.0054H28.9067C28.2758 36.0054 27.7643 35.4939 27.7643 34.8629ZM27.7643 40.1944C27.7643 39.5634 28.2758 39.0519 28.9067 39.0519H37.2848C37.9157 39.0519 38.4272 39.5634 38.4272 40.1944C38.4272 40.8253 37.9157 41.3368 37.2848 41.3368H28.9067C28.2758 41.3368 27.7643 40.8253 27.7643 40.1944Z" fill="#FFBE1B"/>
<path d="M23.4363 22.8093C23.9671 23.0474 24.3369 23.5805 24.3369 24.1999H42.6162C43.1422 24.1999 43.6527 24.2666 44.1395 24.3919V23.1428C44.1395 21.2889 42.4975 19.8647 40.6621 20.1269L24.2144 22.4766C23.9212 22.5185 23.6555 22.6367 23.4363 22.8093Z" fill="#FFBE1B"/>
</svg>
