<svg width="35" height="35" viewBox="0 0 35 35" fill="none" xmlns="http://www.w3.org/2000/svg">
<g clip-path="url(#clip0_519_234)">
<path d="M18.2012 20.8773H22.8992L22.1832 19.0352H20.5702C19.4536 19.0393 18.4804 19.7961 18.2012 20.8773Z" fill="#FF7F7F"/>
<path d="M25.2614 10.7733L23.4911 8.82556L21.1959 9.71775L21.2045 12.3489L25.2614 10.7733Z" fill="#FF7F7F"/>
<path d="M21.191 8.40185L22.6063 7.85167L21.1842 6.28711L21.191 8.40185Z" fill="#FF7F7F"/>
<path d="M21.7067 17.807L20.0175 13.467C19.9887 13.3974 19.9747 13.3225 19.9764 13.2472L19.9561 6.05193C19.952 5.75378 20.0671 5.46631 20.2757 5.25329C20.4843 5.04027 20.7694 4.91929 21.0675 4.91719C21.0767 4.91719 21.0841 4.91228 21.0927 4.91228H25.4824C25.8216 4.91228 26.0965 5.18719 26.0965 5.52632C26.0965 5.86544 25.8216 6.14035 25.4824 6.14035H22.7101L26.7719 10.6087C26.828 10.6601 26.8688 10.7259 26.8898 10.799L29.6112 17.807H31.6228V0H20.5702C19.2137 0 18.114 1.09965 18.114 2.45614V18.7526C18.7874 18.1442 19.6626 17.8073 20.5702 17.807H21.7067ZM20.5702 1.84211H29.1666C29.5058 1.84211 29.7807 2.11702 29.7807 2.45614C29.7807 2.79526 29.5058 3.07018 29.1666 3.07018H20.5702C20.231 3.07018 19.9561 2.79526 19.9561 2.45614C19.9561 2.11702 20.231 1.84211 20.5702 1.84211Z" fill="#FF7F7F"/>
<path d="M31.6228 20.8773V19.0352H30.0883L30.8037 20.8773H31.6228Z" fill="#FF7F7F"/>
<path d="M16.886 18.7526V2.45614C16.886 1.09965 15.7863 0 14.4298 0H3.3772V17.807H14.4298C15.3374 17.8073 16.2126 18.1442 16.886 18.7526ZM5.83334 1.84211H14.4298C14.769 1.84211 15.0439 2.11702 15.0439 2.45614C15.0439 2.79526 14.769 3.07018 14.4298 3.07018H5.83334C5.49422 3.07018 5.2193 2.79526 5.2193 2.45614C5.2193 2.11702 5.49422 1.84211 5.83334 1.84211ZM5.83334 4.91228H14.4298C14.769 4.91228 15.0439 5.18719 15.0439 5.52632C15.0439 5.86544 14.769 6.14035 14.4298 6.14035H5.83334C5.49422 6.14035 5.2193 5.86544 5.2193 5.52632C5.2193 5.18719 5.49422 4.91228 5.83334 4.91228ZM5.83334 7.98246H14.4298C14.769 7.98246 15.0439 8.25737 15.0439 8.59649C15.0439 8.93561 14.769 9.21053 14.4298 9.21053H5.83334C5.49422 9.21053 5.2193 8.93561 5.2193 8.59649C5.2193 8.25737 5.49422 7.98246 5.83334 7.98246ZM5.83334 11.0526H14.4298C14.769 11.0526 15.0439 11.3275 15.0439 11.6667C15.0439 12.0058 14.769 12.2807 14.4298 12.2807H5.83334C5.49422 12.2807 5.2193 12.0058 5.2193 11.6667C5.2193 11.3275 5.49422 11.0526 5.83334 11.0526ZM5.2193 14.7368C5.2193 14.3977 5.49422 14.1228 5.83334 14.1228H14.4298C14.769 14.1228 15.0439 14.3977 15.0439 14.7368C15.0439 15.076 14.769 15.3509 14.4298 15.3509H5.83334C5.49422 15.3509 5.2193 15.076 5.2193 14.7368Z" fill="#FF7F7F"/>
<path d="M25.9669 11.8164L21.3881 13.5971C24.3667 21.2639 24.5276 21.6754 26.2807 26.1873L30.8596 24.4066L25.9669 11.8164Z" fill="#FF7F7F"/>
<path d="M26.7177 27.3303L31.296 25.5521L31.9628 27.2689L27.3846 29.0472L26.7177 27.3303Z" fill="#FF7F7F"/>
<path d="M32.4143 28.4158L27.8354 30.1965L29.1667 33.6283C29.4123 34.2604 30.1237 34.5737 30.7558 34.3283L33.0455 33.4392C33.6776 33.1936 33.9909 32.4822 33.7455 31.8501L32.4143 28.4158Z" fill="#FF7F7F"/>
<path d="M3.37718 22.1053C2.69894 22.1053 2.14911 21.5555 2.14911 20.8773V1.84216H0.921042C0.58192 1.84216 0.307007 2.11708 0.307007 2.4562V23.3334C0.307007 23.6725 0.58192 23.9474 0.921042 23.9474H24.0917L23.3757 22.1053H3.37718Z" fill="#FF7F7F"/>
<path d="M14.4298 19.0352H3.3772V20.8773H16.7988C16.5196 19.7961 15.5464 19.0393 14.4298 19.0352Z" fill="#FF7F7F"/>
<path d="M34.0789 1.84216H32.8508V20.8773C32.8508 21.5555 32.301 22.1053 31.6228 22.1053H31.2808L31.9961 23.9474H34.0789C34.418 23.9474 34.693 23.6725 34.693 23.3334V2.4562C34.693 2.11708 34.418 1.84216 34.0789 1.84216Z" fill="#FF7F7F"/>
</g>
<defs>
<clipPath id="clip0_519_234">
<rect width="35" height="35" fill="white"/>
</clipPath>
</defs>
</svg>
