<svg width="35" height="35" viewBox="0 0 35 35" fill="none" xmlns="http://www.w3.org/2000/svg">
<path d="M32.8125 17.5001C32.8129 16.2907 32.3549 15.1262 31.5308 14.2412C31.2526 13.9602 31.0415 13.62 30.9133 13.2459C30.7851 12.8719 30.7431 12.4736 30.7905 12.0811C30.7931 12.0597 30.7944 12.0382 30.7943 12.0167C30.7915 10.8372 30.3552 9.69994 29.5685 8.82111C28.7819 7.94229 27.6997 7.38323 26.5277 7.25025C26.3816 6.08709 25.8293 5.01294 24.9683 4.21734C24.4881 3.77518 23.9214 3.43746 23.304 3.22552C22.6867 3.01358 22.032 2.93203 21.3815 2.98602C20.731 3.04001 20.0988 3.22838 19.5248 3.5392C18.9508 3.85003 18.4476 4.27656 18.0469 4.79183V12.5782H20.4106C20.8456 12.5777 21.2626 12.4047 21.5702 12.0971C21.8778 11.7895 22.0508 11.3725 22.0513 10.9376V9.52662C21.6864 9.39761 21.3788 9.14377 21.183 8.80995C20.9872 8.47613 20.9157 8.08383 20.9811 7.70239C21.0466 7.32094 21.2448 6.97492 21.5407 6.72546C21.8366 6.47601 22.2111 6.3392 22.5981 6.3392C22.9851 6.3392 23.3597 6.47601 23.6556 6.72546C23.9515 6.97492 24.1497 7.32094 24.2151 7.70239C24.2806 8.08383 24.2091 8.47613 24.0132 8.80995C23.8174 9.14377 23.5099 9.39761 23.145 9.52662V10.9376C23.1442 11.6625 22.8558 12.3575 22.3432 12.8701C21.8306 13.3827 21.1356 13.6711 20.4106 13.6719H18.0469V15.5291H24.2355C24.6705 15.5286 25.0875 15.3556 25.3951 15.0481C25.7027 14.7405 25.8757 14.3235 25.8762 13.8885V12.4776C25.5113 12.3485 25.2037 12.0947 25.0079 11.7609C24.8121 11.4271 24.7406 11.0348 24.806 10.6533C24.8715 10.2719 25.0697 9.92586 25.3656 9.6764C25.6615 9.42695 26.036 9.29013 26.423 9.29013C26.81 9.29013 27.1846 9.42695 27.4805 9.6764C27.7764 9.92586 27.9746 10.2719 28.04 10.6533C28.1055 11.0348 28.034 11.4271 27.8381 11.7609C27.6423 12.0947 27.3348 12.3485 26.9699 12.4776V13.8885C26.9691 14.6134 26.6807 15.3084 26.1681 15.821C25.6555 16.3337 24.9605 16.622 24.2355 16.6229H18.0469V18.3772H24.2355C24.9605 18.3781 25.6555 18.6665 26.1681 19.1791C26.6807 19.6917 26.9691 20.3867 26.9699 21.1116V22.5226C27.3348 22.6516 27.6423 22.9054 27.8381 23.2392C28.034 23.573 28.1055 23.9653 28.04 24.3468C27.9746 24.7282 27.7764 25.0743 27.4805 25.3237C27.1846 25.5732 26.81 25.71 26.423 25.71C26.036 25.71 25.6615 25.5732 25.3656 25.3237C25.0697 25.0743 24.8715 24.7282 24.806 24.3468C24.7406 23.9653 24.8121 23.573 25.0079 23.2392C25.2037 22.9054 25.5113 22.6516 25.8762 22.5226V21.1116C25.8757 20.6766 25.7027 20.2596 25.3951 19.952C25.0875 19.6445 24.6705 19.4715 24.2355 19.471H18.0469V21.3282H20.4106C21.1356 21.329 21.8306 21.6174 22.3432 22.13C22.8558 22.6426 23.1442 23.3376 23.145 24.0626V25.4735C23.5099 25.6025 23.8174 25.8563 24.0132 26.1902C24.2091 26.524 24.2806 26.9163 24.2151 27.2977C24.1497 27.6792 23.9515 28.0252 23.6556 28.2746C23.3597 28.5241 22.9851 28.6609 22.5981 28.6609C22.2111 28.6609 21.8366 28.5241 21.5407 28.2746C21.2448 28.0252 21.0466 27.6792 20.9811 27.2977C20.9157 26.9163 20.9872 26.524 21.183 26.1902C21.3788 25.8563 21.6864 25.6025 22.0513 25.4735V24.0626C22.0508 23.6276 21.8778 23.2106 21.5702 22.903C21.2626 22.5954 20.8456 22.4224 20.4106 22.4219H18.0469V30.208C18.4544 30.7337 18.9687 31.167 19.556 31.4793C20.1433 31.7916 20.7902 31.9757 21.4539 32.0196C21.5543 32.0257 21.6542 32.0287 21.7535 32.0287C22.9698 32.0321 24.1411 31.569 25.0262 30.7346C25.8587 29.9525 26.3864 28.9001 26.5152 27.7651C27.6912 27.6318 28.7771 27.0707 29.5662 26.1886C30.3553 25.3066 30.7925 24.1651 30.7945 22.9816C30.7944 22.9607 30.7931 22.9398 30.7908 22.9191C30.7436 22.5248 30.7863 22.125 30.9157 21.7496C31.0451 21.3743 31.2578 21.033 31.5379 20.7516C32.3584 19.8677 32.8137 18.706 32.8125 17.5001V17.5001Z" fill="#4ACA67"/>
<path d="M13.5479 2.98085C12.9082 2.93813 12.2666 3.02589 11.6618 3.2388C11.0571 3.4517 10.5019 3.78531 10.0301 4.21936C9.47764 4.72928 9.04924 5.35892 8.77777 6.06003C9.01776 6.86589 9.46887 7.59291 10.0844 8.16577C10.5437 8.53525 11.0773 8.8013 11.6488 8.94577C12.2203 9.09023 12.8163 9.10971 13.396 9.00287C13.4673 8.99446 13.5396 9.00017 13.6088 9.01969C13.6779 9.03921 13.7425 9.07215 13.7989 9.11664C13.8552 9.16112 13.9023 9.21628 13.9374 9.27896C13.9725 9.34164 13.9949 9.41061 14.0033 9.48194C14.0117 9.55326 14.006 9.62555 13.9864 9.69467C13.9669 9.76379 13.934 9.82839 13.8895 9.88478C13.845 9.94117 13.7899 9.98824 13.7272 10.0233C13.6645 10.0584 13.5955 10.0808 13.5242 10.0892C13.2367 10.1238 12.9475 10.1414 12.658 10.142C11.4532 10.1801 10.2774 9.76777 9.3603 8.98554C8.83543 8.51511 8.40936 7.945 8.10686 7.30838C7.01122 7.51865 6.02282 8.10343 5.31103 8.9625C4.59924 9.82157 4.20839 10.9015 4.20545 12.0171C4.261 12.4212 4.22285 12.8327 4.09395 13.2198C3.96506 13.6068 3.74886 13.9591 3.46209 14.2492C2.64147 15.135 2.18614 16.2983 2.18747 17.5057C2.1888 18.7132 2.64668 19.8755 3.46925 20.7594C3.75395 21.0488 3.96839 21.3996 4.09603 21.7849C4.22368 22.1703 4.26111 22.5797 4.20545 22.9818C4.20343 24.0866 4.58294 25.1581 5.27982 26.0153C5.9767 26.8725 6.9482 27.4628 8.03008 27.6864C8.27331 27.2708 8.58166 26.8969 8.94336 26.579C10.0414 25.6238 11.5592 25.2748 13.454 25.5386C13.5947 25.562 13.7207 25.6395 13.8051 25.7544C13.8895 25.8694 13.9256 26.0127 13.9058 26.154C13.8861 26.2952 13.8119 26.4231 13.6991 26.5104C13.5864 26.5977 13.444 26.6376 13.3023 26.6214C11.737 26.4033 10.5156 26.6641 9.66753 27.3985C9.24776 27.7731 8.92058 28.24 8.71171 28.7624C8.96332 29.5131 9.39641 30.1901 9.97253 30.7332C10.8579 31.5686 12.0301 32.0324 13.2473 32.0288C13.9627 32.0273 14.6684 31.8626 15.3106 31.5472C15.9527 31.2319 16.5145 30.7742 16.9531 30.2089V16.0465C16.5012 16.1378 16.0415 16.1848 15.5805 16.1868C15.0852 16.1891 14.5918 16.1275 14.1124 16.0034C13.8178 15.9955 11.7585 15.976 11.049 17.1966C11.0139 17.2606 10.9664 17.317 10.9092 17.3623C10.852 17.4076 10.7863 17.4411 10.716 17.4606C10.6457 17.4802 10.5722 17.4854 10.4998 17.4761C10.4274 17.4668 10.3576 17.4432 10.2945 17.4065C10.2314 17.3698 10.1763 17.3208 10.1325 17.2625C10.0886 17.2042 10.0568 17.1377 10.0391 17.0669C10.0213 16.9961 10.0179 16.9225 10.029 16.8504C10.0401 16.7782 10.0656 16.7091 10.1038 16.6469C10.3639 16.2464 10.7023 15.9025 11.0987 15.6361C11.495 15.3698 11.9412 15.1863 12.4103 15.0968C11.9064 14.6268 11.532 14.0349 11.3231 13.3782C11.2768 13.2407 11.2871 13.0904 11.3517 12.9604C11.4162 12.8305 11.5298 12.7315 11.6673 12.6853C11.8048 12.639 11.9551 12.6493 12.0851 12.7138C12.215 12.7784 12.314 12.8919 12.3602 13.0295C13.2031 15.5368 15.9414 15.1616 16.9531 14.9281V4.79172C16.5458 4.26632 16.0317 3.83326 15.4447 3.52111C14.8578 3.20897 14.2113 3.02483 13.5479 2.98085V2.98085Z" fill="#4ACA67"/>
</svg>
