<svg width="60" height="60" viewBox="0 0 60 60" fill="none" xmlns="http://www.w3.org/2000/svg">
<rect width="60" height="60" rx="30" fill="#FFBE1B" fill-opacity="0.12"/>
<g clip-path="url(#clip0_506_194)">
<path d="M17.6721 25.6083C17.6721 25.1229 17.2785 24.7294 16.7931 24.7294H15.8789C15.3935 24.7294 15 25.1229 15 25.6083C15 26.0937 15.3935 26.4872 15.8789 26.4872H16.7931C17.2785 26.4872 17.6721 26.0937 17.6721 25.6083Z" fill="#FFBE1B"/>
<path d="M18.1301 18.5532C18.9211 18.5532 19.3152 17.5775 18.7297 17.0315L18.0611 16.4079C17.706 16.077 17.1499 16.0964 16.8189 16.4513C16.4878 16.8063 16.5073 17.3624 16.8622 17.6935C17.4025 18.1345 17.5938 18.5532 18.1301 18.5532V18.5532Z" fill="#FFBE1B"/>
<path d="M17.5308 32.7766L16.8622 33.4001C16.5072 33.7312 16.4878 34.2874 16.8188 34.6423C17.15 34.9974 17.706 35.0167 18.061 34.6857L18.7296 34.0622C19.0847 33.7312 19.1041 33.175 18.7731 32.8201C18.442 32.465 17.8858 32.4456 17.5308 32.7766V32.7766Z" fill="#FFBE1B"/>
<path d="M44.1211 24.6064H43.2068C42.7215 24.6064 42.3279 25 42.3279 25.4854C42.3279 25.9707 42.7215 26.3643 43.2068 26.3643H44.1211C44.6065 26.3643 45 25.9707 45 25.4854C45 25 44.6065 24.6064 44.1211 24.6064Z" fill="#FFBE1B"/>
<path d="M42.4692 32.7767C42.1142 32.4458 41.558 32.4651 41.2269 32.8201C40.8959 33.1751 40.9153 33.7312 41.2703 34.0623L41.939 34.6858C42.2947 35.0175 42.8508 34.9966 43.1812 34.6424C43.5122 34.2874 43.4928 33.7312 43.1378 33.4002L42.4692 32.7767Z" fill="#FFBE1B"/>
<path d="M42.4692 18.3171L43.1378 17.6936C43.4928 17.3625 43.5122 16.8063 43.1811 16.4514C42.8501 16.0964 42.2939 16.0769 41.939 16.408L41.2703 17.0315C40.9153 17.3626 40.8959 17.9187 41.227 18.2737C41.5581 18.6287 42.1143 18.6481 42.4692 18.3171Z" fill="#FFBE1B"/>
<path d="M25.0195 38.8184C25.0195 39.9116 25.689 40.8512 26.6393 41.25H33.3607C34.311 40.8512 34.9805 39.9116 34.9805 38.8184V37.5586H25.0195V38.8184Z" fill="#FFBE1B"/>
<path d="M26.7773 44.1211C26.7773 44.6062 27.1711 45 27.6562 45H32.3438C32.8289 45 33.2227 44.6062 33.2227 44.1211V43.0078H26.7773V44.1211Z" fill="#FFBE1B"/>
<path d="M40.1688 25.5468C42.6697 22.9939 41.2247 18.6882 37.7251 18.1308C36.8465 15.2099 33.3165 14.0471 30.8789 15.881V36.123H33.5156C35.4996 36.123 37.1923 34.8199 37.7338 32.9614C41.2144 32.4 42.6744 28.1045 40.1688 25.5468V25.5468ZM32.6367 20.332C32.6367 19.8466 33.0302 19.4531 33.5156 19.4531C34.001 19.4531 34.3945 19.8466 34.3945 20.332C34.3945 21.232 34.7357 21.3969 35.4154 21.7253C36.0589 22.0362 37.0312 22.506 37.0312 23.8476C37.0312 24.333 36.6377 24.7265 36.1523 24.7265C35.667 24.7265 35.2734 24.333 35.2734 23.8476C35.2734 23.6548 35.2734 23.6089 34.6507 23.3081C33.8975 22.9441 32.6367 22.335 32.6367 20.332ZM37.8499 28.6239C36.838 30.0261 35.2749 30.6079 34.8298 30.6079C34.4474 30.6079 34.0956 30.3564 33.9852 29.9705C33.8517 29.5038 34.1219 29.0173 34.5886 28.8838C35.3152 28.676 35.9719 28.2224 36.4245 27.5952C36.7085 27.2016 37.2579 27.1128 37.6515 27.3968C38.0451 27.681 38.1339 28.2303 37.8499 28.6239V28.6239Z" fill="#FFBE1B"/>
<path d="M29.1211 36.123V15.881C26.6836 14.0472 23.1535 15.2098 22.275 18.1308C18.7734 18.6886 17.3314 22.995 19.8312 25.5468C17.3248 28.1053 18.7873 32.4002 22.2662 32.9614C22.8095 34.826 24.5058 36.123 26.4844 36.123H29.1211ZM24.5846 21.7253C25.2643 21.3969 25.6054 21.2321 25.6054 20.332C25.6054 19.8466 25.999 19.4531 26.4843 19.4531C26.9697 19.4531 27.3633 19.8466 27.3633 20.332C27.3633 22.335 26.1025 22.9441 25.3493 23.3081C24.7265 23.6089 24.7265 23.6548 24.7265 23.8476C24.7265 24.333 24.333 24.7265 23.8476 24.7265C23.3622 24.7265 22.9687 24.333 22.9687 23.8476C22.9687 22.506 23.9411 22.0362 24.5846 21.7253ZM26.0148 29.9705C25.9044 30.3564 25.5526 30.6079 25.1702 30.6079C24.7116 30.6079 23.2506 30.0306 22.2777 28.7932C21.9776 28.4116 22.0438 27.859 22.4253 27.559C22.807 27.259 23.3595 27.3251 23.6595 27.7067C24.0972 28.2634 24.7139 28.6843 25.4114 28.8837C25.8781 29.0173 26.1483 29.5038 26.0148 29.9705V29.9705Z" fill="#FFBE1B"/>
</g>
<defs>
<clipPath id="clip0_506_194">
<rect width="30" height="30" fill="white" transform="translate(15 14.9999)"/>
</clipPath>
</defs>
</svg>
