<svg width="60" height="60" viewBox="0 0 60 60" fill="none" xmlns="http://www.w3.org/2000/svg">
<rect width="60" height="60" rx="30" fill="#4ACA67" fill-opacity="0.12"/>
<path fill-rule="evenodd" clip-rule="evenodd" d="M33.1081 20.0206L33.108 24.2439C33.1078 24.3975 33.1075 24.6166 33.1369 24.8046C33.1728 25.0344 33.291 25.4782 33.7505 25.7479C34.193 26.0078 34.6258 25.9113 34.8315 25.8473C35.0109 25.7916 35.2075 25.6979 35.3542 25.628L36.9064 24.8907L38.4586 25.628C38.6053 25.6979 38.8019 25.7916 38.9813 25.8473C39.187 25.9113 39.6198 26.0078 40.0623 25.7479C40.5218 25.4782 40.64 25.0344 40.6759 24.8046C40.7053 24.6166 40.705 24.3976 40.7048 24.244L40.7047 18.0203C40.8605 18.013 41.0135 18.0068 41.163 18.0016C42.6434 17.95 43.8122 19.1659 43.8122 20.6472V36.1312C43.8122 37.6657 42.5608 38.9073 41.0293 39.0031C39.6903 39.0868 38.1171 39.2506 36.9062 39.5701C35.4124 39.9643 33.6286 40.8175 32.2481 41.5534C31.8627 41.7588 31.4546 41.9077 31.0362 41.9999V20.9796C31.4793 20.8711 31.9095 20.7 32.312 20.4671C32.5665 20.3197 32.8335 20.1695 33.1081 20.0206ZM40.6738 31.538C40.8126 32.093 40.4751 32.6554 39.9201 32.7942L34.3952 34.1754C33.8402 34.3142 33.2777 33.9767 33.139 33.4217C33.0002 32.8666 33.3377 32.3042 33.8927 32.1655L39.4176 30.7842C39.9726 30.6455 40.535 30.9829 40.6738 31.538Z" fill="#4ACA67"/>
<path fill-rule="evenodd" clip-rule="evenodd" d="M28.9644 21.035C28.5028 20.9474 28.0517 20.7918 27.6275 20.5675C26.2654 19.8472 24.5432 19.0327 23.094 18.6503C21.8695 18.3272 20.2746 18.1634 18.9261 18.0805C17.4121 17.9875 16.1879 19.2197 16.1879 20.7365V36.1312C16.1879 37.6657 17.4394 38.9073 18.9709 39.0031C20.3099 39.0868 21.8831 39.2506 23.094 39.5701C24.5877 39.9643 26.3715 40.8175 27.752 41.5534C28.1376 41.7589 28.5459 41.9078 28.9644 42V21.035ZM19.3268 26.0131C19.4656 25.4581 20.028 25.1206 20.5831 25.2594L26.1079 26.6406C26.663 26.7794 27.0004 27.3418 26.8617 27.8968C26.7229 28.4519 26.1605 28.7893 25.6054 28.6506L20.0806 27.2693C19.5255 27.1306 19.1881 26.5682 19.3268 26.0131ZM20.5831 30.7842C20.028 30.6455 19.4656 30.9829 19.3268 31.538C19.1881 32.093 19.5255 32.6554 20.0806 32.7942L25.6054 34.1754C26.1605 34.3142 26.7229 33.9767 26.8617 33.4217C27.0004 32.8666 26.663 32.3042 26.1079 32.1655L20.5831 30.7842Z" fill="#4ACA67"/>
<path d="M38.6329 18.1856C37.7765 18.2869 36.9346 18.4351 36.2155 18.6503C35.8819 18.7502 35.5337 18.8768 35.1799 19.0218V19.2893V23.4171L36.2148 22.9255L36.227 22.9194C36.2947 22.8848 36.5799 22.7389 36.9064 22.7389C36.9721 22.7389 37.036 22.7448 37.0969 22.7545C37.3388 22.7931 37.5317 22.8917 37.5858 22.9194L37.5979 22.9255L38.6329 23.4171V18.8702V18.1856Z" fill="#4ACA67"/>
</svg>
