<svg width="35" height="35" viewBox="0 0 35 35" fill="none" xmlns="http://www.w3.org/2000/svg">
<g clip-path="url(#clip0_519_228)">
<path d="M22.9192 17.6462C22.762 18.9307 22.1844 20.155 21.2328 21.1066C20.0762 22.2639 18.4595 22.8087 16.4292 22.7267C15.0052 22.67 14.3476 23.0425 14.2396 23.1102C13.8035 23.4923 13.2498 23.7015 12.6653 23.7015C12.0261 23.7015 11.4252 23.4527 10.9734 23.0008C10.1934 22.2209 10.0676 21.0177 10.6001 20.101L10.9823 19.4954C11.1121 19.1788 11.2878 18.554 11.2468 17.5444C11.1655 15.5134 11.7103 13.8974 12.8669 12.7407C13.8144 11.7939 15.0257 11.2074 16.3355 11.0509C16.5208 10.1601 16.922 9.32684 17.5011 8.62683H3.7621C2.25272 8.62683 1.02429 9.85457 1.02429 11.364V24.9395H29.585V11.4597L26.1144 15.713C25.2982 16.7104 24.1648 17.3892 22.9192 17.6462V17.6462Z" fill="#FF62FF"/>
<path d="M1.0243 27.8654C1.0243 29.3741 2.25272 30.6018 3.76211 30.6018H11.5427V32.9493H9.81817C9.25188 32.9493 8.79277 33.4084 8.79277 33.9747C8.79277 34.541 9.25188 35.0001 9.81817 35.0001H20.7908C21.3571 35.0001 21.8162 34.541 21.8162 33.9747C21.8162 33.4084 21.3571 32.9493 20.7908 32.9493H19.0662V30.6018H26.8471C28.3565 30.6018 29.5849 29.3741 29.5849 27.8654V26.9904H1.02423V27.8654H1.0243Z" fill="#FF62FF"/>
<path d="M12.4483 21.0434C12.4481 21.0436 12.4479 21.0438 12.4477 21.044C12.4476 21.044 12.4475 21.0441 12.4475 21.0442L12.4472 21.0445C12.4471 21.0446 12.447 21.0447 12.4469 21.0449C12.4468 21.0451 12.4467 21.0451 12.4465 21.0452L12.4464 21.0453C12.4464 21.0454 12.4462 21.0455 12.4461 21.0456C12.4461 21.0456 12.4461 21.0456 12.446 21.0457C12.446 21.0457 12.4458 21.0459 12.4458 21.046C12.4458 21.046 12.4458 21.046 12.4457 21.0461C12.4456 21.0462 12.4455 21.0463 12.4454 21.0464C12.4454 21.0464 12.4454 21.0464 12.4453 21.0465L12.4449 21.0468C12.3153 21.1806 12.3166 21.3941 12.4488 21.5263C12.5156 21.593 12.603 21.6264 12.6905 21.6264C12.7772 21.6264 12.8639 21.5936 12.9304 21.5281C12.9513 21.5083 13.9867 20.551 16.5375 20.6536C17.9726 20.7114 19.0729 20.3676 19.8082 19.6323C21.3151 18.1255 21.3151 15.6737 19.8082 14.1669C19.0783 13.4369 18.1078 13.0349 17.0755 13.0349C16.0432 13.0349 15.0727 13.4369 14.3427 14.1669C13.6075 14.9021 13.2638 16.0026 13.3215 17.4376C13.4246 20.0022 12.4566 21.0349 12.4488 21.0429C12.4485 21.0431 12.4484 21.0433 12.4483 21.0434V21.0434Z" fill="#FF62FF"/>
<path d="M22.8304 15.5379C23.4989 15.3376 24.1012 14.9411 24.5503 14.3922L25.8605 12.7866L21.1932 8.11926L19.5943 9.4252C19.044 9.87364 18.6461 10.4752 18.4451 11.1438C19.502 11.3919 20.4713 11.9299 21.2581 12.7167C22.0634 13.522 22.5877 14.5029 22.8304 15.5379Z" fill="#FF62FF"/>
<path d="M33.3598 0.615731C32.5962 -0.147843 31.389 -0.208683 30.5522 0.474911L22.7895 6.81545L27.1636 11.1896L33.5013 3.42264C34.1842 2.58653 34.1233 1.37931 33.3598 0.615731V0.615731Z" fill="#FF62FF"/>
</g>
<defs>
<clipPath id="clip0_519_228">
<rect width="35" height="35" fill="white"/>
</clipPath>
</defs>
</svg>
