<svg width="70" height="71" viewBox="0 0 70 71" fill="none" xmlns="http://www.w3.org/2000/svg">
<rect y="0.0959473" width="70" height="70" rx="35" fill="#316AFF" fill-opacity="0.1"/>
<g clip-path="url(#clip0_521_265)">
<path d="M39.5285 20.9287C37.1601 19.8184 34.506 19.8184 32.1377 20.9287L24.9821 24.2834C26.2854 24.424 27.4768 25.2449 28.0299 26.5356C28.8458 28.4392 27.964 30.6437 26.0603 31.4596L24.2676 32.2279C23.3767 32.6097 22.8711 32.8303 22.5298 33.0053C22.528 33.0325 22.5262 33.0606 22.5245 33.0896L32.1378 37.5965C34.5061 38.7069 37.1603 38.7069 39.5286 37.5965L50.6805 32.3683C53.1062 31.231 53.1062 27.2943 50.6805 26.157L39.5285 20.9287Z" fill="#316AFF"/>
<path d="M24.1665 36.6205V42.805C24.1665 44.485 25.0056 46.058 26.4754 46.8719C28.9226 48.2272 32.8398 50.0959 35.8331 50.0959C38.8265 50.0959 42.7436 48.2272 45.1909 46.8719C46.6606 46.058 47.4998 44.485 47.4998 42.805V36.6206L40.5898 39.8601C37.5491 41.2857 34.1173 41.2857 31.0766 39.8601L24.1665 36.6205Z" fill="#316AFF"/>
<path d="M25.0759 29.1619C25.7104 28.8899 26.0043 28.1551 25.7324 27.5205C25.4604 26.886 24.7256 26.5921 24.0911 26.864L22.2388 27.6578C21.3096 28.056 20.5223 28.3934 19.9044 28.741C19.2469 29.1109 18.681 29.545 18.2571 30.1878C17.8332 30.8307 17.6571 31.5218 17.5762 32.2718C17.5001 32.9767 17.5001 33.8333 17.5001 34.8441V39.6796C17.5001 40.37 18.0598 40.9296 18.7501 40.9296C19.4405 40.9296 20.0001 40.37 20.0001 39.6796V34.9089C20.0001 33.8159 20.0018 33.0951 20.0617 32.5402C20.1184 32.0155 20.2176 31.7561 20.3442 31.5641C20.4709 31.372 20.6702 31.1787 21.1301 30.9199C21.6165 30.6463 22.2784 30.3608 23.2831 29.9302L25.0759 29.1619Z" fill="#316AFF"/>
</g>
<defs>
<clipPath id="clip0_521_265">
<rect width="35" height="35" fill="white" transform="translate(17.5 17.5959)"/>
</clipPath>
</defs>
</svg>
