<svg width="60" height="60" viewBox="0 0 60 60" fill="none" xmlns="http://www.w3.org/2000/svg">
<rect width="60" height="60" rx="30" fill="#5B46FF" fill-opacity="0.12"/>
<path d="M35.1041 23.4375C35.1041 26.2564 32.8189 28.5416 30 28.5416C27.181 28.5416 24.8958 26.2564 24.8958 23.4375C24.8958 20.6185 27.181 18.3333 30 18.3333C32.8189 18.3333 35.1041 20.6185 35.1041 23.4375Z" fill="#5B46FF"/>
<path d="M38.75 36.5625C38.75 39.3814 34.8325 41.6666 30 41.6666C25.1675 41.6666 21.25 39.3814 21.25 36.5625C21.25 33.7435 25.1675 31.4583 30 31.4583C34.8325 31.4583 38.75 33.7435 38.75 36.5625Z" fill="#5B46FF"/>
<path d="M22.8863 19.7917C23.1451 19.7917 23.3978 19.8171 23.6418 19.8654C23.0474 20.9211 22.7084 22.1397 22.7084 23.4375C22.7084 24.7037 23.0311 25.8945 23.5988 26.9322C23.3682 26.9752 23.13 26.9977 22.8863 26.9977C20.8237 26.9977 19.1515 25.3846 19.1515 23.3947C19.1515 21.4048 20.8237 19.7917 22.8863 19.7917Z" fill="#5B46FF"/>
<path d="M20.4441 40.1879C19.6158 39.1978 19.0625 37.983 19.0625 36.5625C19.0625 35.1855 19.5825 34.0017 20.3689 33.0286C17.5912 33.244 15.4167 34.7632 15.4167 36.6054C15.4167 38.4648 17.6294 39.9952 20.4441 40.1879Z" fill="#5B46FF"/>
<path d="M37.2916 23.4375C37.2916 24.7037 36.9688 25.8945 36.4011 26.9322C36.6317 26.9752 36.8699 26.9977 37.1136 26.9977C39.1763 26.9977 40.8484 25.3846 40.8484 23.3947C40.8484 21.4048 39.1763 19.7917 37.1136 19.7917C36.8548 19.7917 36.6021 19.8171 36.3582 19.8654C36.9525 20.9211 37.2916 22.1397 37.2916 23.4375Z" fill="#5B46FF"/>
<path d="M39.5559 40.1879C42.3705 39.9952 44.5832 38.4648 44.5832 36.6054C44.5832 34.7632 42.4087 33.244 39.6311 33.0286C40.4174 34.0017 40.9374 35.1855 40.9374 36.5625C40.9374 37.983 40.3841 39.1978 39.5559 40.1879Z" fill="#5B46FF"/>
</svg>
