<svg width="35" height="35" viewBox="0 0 35 35" fill="none" xmlns="http://www.w3.org/2000/svg">
<g clip-path="url(#clip0_519_231)">
<path d="M8.88879 14.4012L8.16912 15.8579C7.91825 16.3657 7.3031 16.5739 6.79568 16.3231C6.28793 16.0723 6.07964 15.4573 6.33051 14.9496L10.3829 6.74674C10.7565 5.99057 11.8368 5.98497 12.2175 6.73861L14.9271 12.1028C17.0466 10.5184 19.6327 9.52541 22.4388 9.37242C21.5208 4.05694 16.8766 0.000610352 11.302 0.000610352C5.07055 0.000610352 0.000469132 5.07069 0.000469132 11.3022C0.000469132 14.1 1.04292 16.7913 2.89609 18.855L0.402411 20.7649C-0.375019 21.3609 0.0500967 22.6044 1.02583 22.6044H9.36476C9.49717 19.4975 10.6582 16.6523 12.515 14.4013H8.88879V14.4012Z" fill="#4884FC"/>
<path d="M9.90192 12.3505H12.7548L11.3125 9.49512L9.90192 12.3505Z" fill="#4884FC"/>
<path d="M34.5976 33.1601L31.9409 31.1255C33.8974 28.9657 34.9996 26.1394 34.9996 23.2011C34.9996 16.6955 29.7069 11.4027 23.2012 11.4027C16.6956 11.4027 11.4028 16.6955 11.4028 23.2011C11.4028 29.799 16.7726 34.9995 23.1713 34.9995H33.9741C34.9519 34.9995 35.3736 33.7545 34.5976 33.1601V33.1601ZM27.289 26.2772C27.8553 26.2772 28.3143 26.7363 28.3143 27.3026C28.3143 27.8689 27.8553 28.328 27.289 28.328C26.9955 28.2914 25.189 28.5611 23.1944 27.2888C21.2183 28.5492 19.3718 28.2941 19.0998 28.328C18.5335 28.328 18.0744 27.8689 18.0744 27.3026C18.0744 26.7363 18.5335 26.2772 19.0998 26.2772C19.4106 26.2515 20.3825 26.4051 21.5795 25.8417C20.7544 24.8169 20.2267 23.5433 20.1284 22.1529H19.0998C18.5335 22.1529 18.0744 21.6938 18.0744 21.1275C18.0744 20.5612 18.5335 20.1022 19.0998 20.1022H22.1689V19.0997C22.1689 18.5334 22.628 18.0743 23.1943 18.0743C23.7606 18.0743 24.2197 18.5334 24.2197 19.0997V20.1022H27.3027C27.8689 20.1022 28.328 20.5612 28.328 21.1275C28.328 21.6938 27.8689 22.1529 27.3027 22.1529H26.2603C26.162 23.5433 25.6343 24.8169 24.8092 25.8417C26.0045 26.4042 26.9776 26.2514 27.289 26.2772Z" fill="#4884FC"/>
<path d="M23.1944 24.5785C23.7454 23.9021 24.1085 23.067 24.2024 22.153H22.1864C22.2803 23.067 22.6434 23.9021 23.1944 24.5785Z" fill="#4884FC"/>
</g>
<defs>
<clipPath id="clip0_519_231">
<rect width="35" height="35" fill="white"/>
</clipPath>
</defs>
</svg>
