<?xml version="1.0" encoding="UTF-8"?>
<svg id="Layer_3" data-name="Layer 3" xmlns="http://www.w3.org/2000/svg" viewBox="0 0 2000 2000">
  <defs>
    <style>
      .cls-1, .cls-2 {
        fill: #fff;
      }

      .cls-3 {
        fill: #0d0d0d;
      }

      .cls-4 {
        fill: #7c3ae9;
        font-size: 235.16px;
      }

      .cls-4, .cls-2 {
        font-family: YuGothicUI-Bold, 'Yu Gothic UI';
        font-weight: 700;
      }

      .cls-5 {
        letter-spacing: 0em;
      }

      .cls-2 {
        font-size: 235.51px;
      }
    </style>
  </defs>
  <text class="cls-4" transform="translate(426.67 1092.1)"><tspan class="cls-5" x="0" y="0">ST</tspan><tspan x="253.18" y="0">OCK</tspan></text>
  <path class="cls-3" d="M1573.33,834.76v182.32c0,37.64-54.88,91.63-95.98,111.09-175.5,83.1-386.23-50.53-306.74-195.9,28.42-51.98,107.69-97.52,183.82-97.52h218.9ZM1418.82,901.57h-75.42c-1.48,0-23.25,9.38-25.8,11.1-21.06,14.14-23.07,56.02-7.45,72.51,20.01,21.13,62.63,17.31,79.24,29.12,4.63,3.29,4.12,5.29,3.68,9.74h-112.21c-21.34,0-10-50.9-13.13-62.5l10.87-1.7.42-19.31h-55.18l.42,19.31,10.87,1.7c1.68,24.11-10.68,67.94,24.11,81.64,3.25,1.28,23.13,5.9,25.31,5.9h108.53c-1.17,23.65-35.07,15.38-56.85,16.89l-4.03-8.73-27.44.18.02,30.63h82.78c2.53,0,18.67-6.37,22.11-8.32,26.57-15.05,26.78-60.92,9.19-79.38-26.67-27.99-93-6.45-84.3-55.4,4.45-25.02,25.72-21.58,52.82-21.31l4.03,8.73,27.44-.18-.02-30.63ZM1503.43,940.54h-55.18l.42,19.31,10.87,1.7c-2.91,11.85,4.93,51.97-4.77,59.08-8.6,6.31-36.57,3.36-15.89,27.78,64.3-4,53.72-50.76,53.26-86.86l10.87-1.7.42-19.31Z"/>
  <path class="cls-3" d="M1418.82,901.57l.02,30.63-27.44.18-4.03-8.73c-27.1-.26-48.38-3.71-52.82,21.31-8.7,48.95,57.64,27.41,84.3,55.4,17.59,18.47,17.38,64.34-9.19,79.38-3.45,1.95-19.58,8.32-22.11,8.32h-82.78l-.02-30.63,27.44-.18,4.03,8.73c21.78-1.52,55.68,6.75,56.85-16.89h-108.53c-2.18,0-22.06-4.62-25.31-5.9-34.78-13.7-22.43-57.53-24.11-81.64l-10.87-1.7-.42-19.31h55.18l-.42,19.31-10.87,1.7c3.13,11.6-8.21,62.5,13.13,62.5h112.21c.44-4.45.95-6.45-3.68-9.74-16.61-11.81-59.23-7.99-79.24-29.12-15.62-16.49-13.61-58.37,7.45-72.51,2.55-1.71,24.32-11.1,25.8-11.1h75.42Z"/>
  <path class="cls-3" d="M1503.43,940.54l-.42,19.31-10.87,1.7c.47,36.1,11.04,82.87-53.26,86.86-20.68-24.43,7.29-21.47,15.89-27.78,9.7-7.12,1.86-47.24,4.77-59.08l-10.87-1.7-.42-19.31h55.18Z"/>
  <path class="cls-1" d="M1394.67,950.1l-5.92,29.73-5.36-4.84c-1.63-.31-20.45,20.23-21.61,23.43-2.88,7.92-.45,23.75-1.3,33.24-4.87,54.46-50.7,79.1-94.89,61.77-5.78-2.27-27.37-15.74-25.66-22.79l53.44-67.68,16.26,42.91,63.69-79.26c1.92-4.15-4.28-6.19-5.27-9.88l26.61-6.62Z"/>
  <path class="cls-1" d="M1230.51,1057.46c-8.79-40.49-2.88-84.41-4.17-126.05,2.46-9.12,41.54-7.99,45.47-1.86,4.78,7.47-.11,64.2,1.28,77.19-13.11,15.01-24.37,32.42-37.39,47.44-1.54,1.78-2.59,3.85-5.19,3.28Z"/>
  <path class="cls-1" d="M1313.33,1019.47v-88.37c0-6.9,41.07-9.11,45.74-1.52,2.26,3.68,2.5,27.98.83,32.05-.38.93-5.37,7.31-6.67,9.07-12.2,16.59-27.52,32.13-39.9,48.77Z"/>
  <text class="cls-2" transform="translate(1386.67 1091.98)"><tspan x="0" y="0">P</tspan></text>
</svg>