<svg width="35" height="35" viewBox="0 0 35 35" fill="none" xmlns="http://www.w3.org/2000/svg">
<path d="M27.9022 8.77017C26.4441 8.77017 25.2579 7.58393 25.2579 6.12582V0H11.4847C9.56688 0 7.92551 1.19998 7.26878 2.88784H20.094C21.8608 2.88784 23.293 4.32018 23.293 6.08686V16.0753C23.293 17.8421 21.8607 19.2743 20.094 19.2743H6.96191V30.4779C6.96191 32.9714 8.99062 35 11.4847 35H29.1351C31.6293 35 33.6579 32.9713 33.6579 30.4779V8.77017H27.9022ZM17.1663 26.8911C17.2916 26.9678 17.3543 27.1036 17.3543 27.2985C17.3543 27.5006 17.2775 27.6782 17.1245 27.8313C16.9712 27.9846 16.8111 28.0612 16.6439 28.0612C16.5533 28.0612 16.4872 28.0439 16.4454 28.009L13.7918 26.2851C13.5758 26.1459 13.468 25.9509 13.468 25.7001C13.468 25.4494 13.576 25.2545 13.7918 25.115L16.4454 23.3913C16.4872 23.3565 16.5533 23.3391 16.6439 23.3391C16.8111 23.3391 16.9712 23.4158 17.1245 23.5689C17.2776 23.7222 17.3543 23.8998 17.3543 24.1017C17.3543 24.2968 17.2916 24.4326 17.1663 24.5092L15.3276 25.7001L17.1663 26.8911ZM22.6404 21.281L18.963 28.8133C18.8794 28.9873 18.7227 29.0745 18.4929 29.0745C18.3257 29.0745 18.1864 29.0171 18.075 28.9021C17.9635 28.7872 17.9078 28.66 17.9078 28.5208C17.9078 28.4581 17.9251 28.392 17.9601 28.3223L21.627 20.7899C21.7107 20.6159 21.8569 20.5287 22.0658 20.5287C22.2189 20.5287 22.3599 20.581 22.4889 20.6854C22.6176 20.7899 22.6822 20.9223 22.6822 21.0824C22.6822 21.1591 22.6682 21.2253 22.6404 21.281ZM26.7984 26.2851L24.1448 28.009C24.103 28.0439 24.0367 28.0612 23.9463 28.0612C23.7791 28.0612 23.6188 27.9846 23.4657 27.8313C23.3124 27.6782 23.2358 27.5006 23.2358 27.2985C23.2358 27.1035 23.2985 26.9678 23.4239 26.8911L25.2627 25.7001L23.4239 24.5092C23.2986 24.4326 23.2359 24.2968 23.2359 24.1017C23.2359 23.8998 23.3125 23.7222 23.4658 23.5689C23.6189 23.4158 23.7791 23.3391 23.9463 23.3391C24.0368 23.3391 24.103 23.3565 24.1449 23.3913L26.7984 25.115C27.0142 25.2545 27.1223 25.4493 27.1223 25.7001C27.1223 25.9507 27.0142 26.1458 26.7984 26.2851Z" fill="#FF62FF"/>
<path d="M19.2495 4.80176H3.13018C2.14389 4.80176 1.3421 5.60355 1.3421 6.58983V15.4359C1.3421 16.4222 2.14389 17.224 3.13018 17.224H19.2495C20.2351 17.224 21.0375 16.4222 21.0375 15.4359V6.58983C21.0375 5.60348 20.2351 4.80176 19.2495 4.80176ZM8.50186 10.0204C8.50186 10.6492 8.32412 11.1126 7.96736 11.4107C7.69734 11.6363 7.36244 11.777 6.96193 11.8317C6.83273 11.8495 6.69601 11.8584 6.55321 11.8584H5.76851V13.5699C5.76851 13.6916 5.70835 13.7852 5.58667 13.8508C5.46499 13.9171 5.32007 13.95 5.15061 13.95C4.98176 13.95 4.83691 13.9171 4.71523 13.8508C4.59355 13.7852 4.53271 13.6916 4.53271 13.5699V8.53104C4.53271 8.43055 4.57509 8.34373 4.65986 8.26922C4.74394 8.19539 4.85536 8.15848 4.9927 8.15848H6.63243C6.74728 8.15848 6.85665 8.16463 6.96186 8.17693C7.37605 8.22342 7.71921 8.36424 7.99121 8.59796C8.33157 8.89115 8.50179 9.3519 8.50179 9.98073V10.0204H8.50186ZM13.089 13.5699C13.089 13.6916 13.0288 13.7852 12.9071 13.8508C12.7855 13.9171 12.6405 13.95 12.4711 13.95C12.3022 13.95 12.1574 13.9171 12.0357 13.8508C11.914 13.7852 11.8532 13.6916 11.8532 13.5699V11.4229H10.277V13.5698C10.277 13.6915 10.2162 13.7851 10.0945 13.8508C9.97282 13.9171 9.82789 13.9499 9.65911 13.9499C9.48958 13.9499 9.34473 13.9171 9.22305 13.8508C9.10137 13.7851 9.04053 13.6915 9.04053 13.5698V8.53097C9.04053 8.40929 9.10137 8.317 9.22305 8.25343C9.34473 8.18985 9.48965 8.15841 9.65911 8.15841C9.82796 8.15841 9.97282 8.18985 10.0945 8.25343C10.2162 8.317 10.277 8.40929 10.277 8.53097V10.4722H11.8532V8.53097C11.8532 8.40929 11.914 8.317 12.0357 8.25343C12.1574 8.18985 12.3023 8.15841 12.4711 8.15841C12.6406 8.15841 12.7855 8.18985 12.9071 8.25343C13.0288 8.317 13.089 8.40929 13.089 8.53097V13.5699ZM17.9138 10.0204C17.9138 10.6492 17.7361 11.1126 17.3793 11.4107C17.0226 11.7094 16.5516 11.8584 15.9651 11.8584H15.1804V13.5699C15.1804 13.6916 15.1196 13.7852 14.9986 13.8508C14.8769 13.9171 14.732 13.95 14.5625 13.95C14.3937 13.95 14.2481 13.9171 14.1272 13.8508C14.0055 13.7852 13.9446 13.6916 13.9446 13.5699V8.53104C13.9446 8.43055 13.987 8.34373 14.0718 8.26922C14.1559 8.19539 14.2666 8.15848 14.4039 8.15848H16.0444C16.6096 8.15848 17.0621 8.30477 17.4032 8.59796C17.7436 8.89115 17.9138 9.3519 17.9138 9.98073V10.0204H17.9138Z" fill="#FF62FF"/>
<path d="M15.9652 9.2356H15.1805V10.9075H15.9652C16.4402 10.9075 16.6781 10.6436 16.6781 10.1152V10.0277C16.6781 9.50015 16.4402 9.2356 15.9652 9.2356Z" fill="#FF62FF"/>
<path d="M6.96191 9.33062C6.85459 9.26772 6.71787 9.2356 6.55319 9.2356H5.76849V10.9075H6.55319C6.71794 10.9075 6.85459 10.876 6.96191 10.8124C7.16494 10.6928 7.26604 10.4605 7.26604 10.1152V10.0277C7.26611 9.68328 7.16494 9.45093 6.96191 9.33062Z" fill="#FF62FF"/>
<path d="M27.3084 0.588135V6.12565C27.3084 6.45316 27.5748 6.71956 27.9022 6.71956H33.1088L27.3084 0.588135Z" fill="#FF62FF"/>
</svg>
