<svg width="60" height="60" viewBox="0 0 60 60" fill="none" xmlns="http://www.w3.org/2000/svg">
<rect width="60" height="60" rx="30" fill="#316AFF" fill-opacity="0.12"/>
<g clip-path="url(#clip0_506_209)">
<path fill-rule="evenodd" clip-rule="evenodd" d="M43.5649 33.0394H39.6355V43.911H43.5649C43.9454 43.9106 44.3101 43.7593 44.5792 43.4903C44.8482 43.2213 44.9995 42.8565 45 42.4761V34.4745C44.9994 34.094 44.8481 33.7294 44.5791 33.4604C44.3101 33.1914 43.9454 33.04 43.565 33.0394H43.5649ZM22.6611 31.0801C26.8857 31.0801 30.3227 27.6438 30.3227 23.4191C30.3227 19.1943 26.8855 15.7583 22.6611 15.7583C21.6533 15.7555 20.6548 15.9516 19.7229 16.3353C18.791 16.7191 17.9439 17.2829 17.2303 17.9946C16.5167 18.7063 15.9505 19.5517 15.5641 20.4826C15.1778 21.4134 14.9789 22.4114 14.9789 23.4192C14.9789 24.427 15.1778 25.425 15.5641 26.3558C15.9505 27.2867 16.5167 28.1321 17.2303 28.8438C17.9439 29.5555 18.791 30.1193 19.7229 30.5031C20.6548 30.8868 21.6533 31.0829 22.6611 31.0801ZM23.3642 27.5641V28.0393C23.3642 28.2258 23.2901 28.4047 23.1583 28.5365C23.0264 28.6684 22.8476 28.7425 22.6611 28.7425C22.4746 28.7425 22.2958 28.6684 22.1639 28.5365C22.032 28.4047 21.958 28.2258 21.958 28.0393V27.5641C21.5134 27.4625 21.1164 27.2131 20.832 26.8566C20.5475 26.5002 20.3923 26.0578 20.3917 25.6018V24.7287C20.3917 24.5423 20.4658 24.3634 20.5976 24.2316C20.7295 24.0997 20.9083 24.0256 21.0948 24.0256C21.2813 24.0256 21.4601 24.0997 21.592 24.2316C21.7239 24.3634 21.7979 24.5423 21.7979 24.7287V25.6018C21.7981 25.7626 21.8621 25.9168 21.9759 26.0305C22.0897 26.1442 22.2439 26.2081 22.4047 26.2082H22.9178C23.0786 26.2081 23.2329 26.1442 23.3467 26.0305C23.4605 25.9168 23.5245 25.7626 23.5248 25.6018V24.7287C23.5246 24.5679 23.4605 24.4137 23.3467 24.2999C23.2329 24.1862 23.0787 24.1223 22.9178 24.1222H22.4047C21.8711 24.1215 21.3596 23.9093 20.9822 23.532C20.6049 23.1547 20.3925 22.6432 20.3918 22.1095V21.2365C20.3923 20.7804 20.5474 20.338 20.8319 19.9816C21.1164 19.6251 21.5134 19.3757 21.958 19.2741V18.7989C21.958 18.6125 22.0321 18.4336 22.164 18.3017C22.2958 18.1699 22.4747 18.0958 22.6611 18.0958C22.8476 18.0958 23.0265 18.1699 23.1583 18.3017C23.2902 18.4336 23.3643 18.6125 23.3643 18.7989V19.2741C23.809 19.3756 24.2061 19.625 24.4907 19.9814C24.7753 20.3379 24.9306 20.7804 24.9311 21.2365V22.1095C24.9311 22.296 24.857 22.4749 24.7251 22.6067C24.5933 22.7386 24.4144 22.8127 24.2279 22.8127C24.0415 22.8127 23.8626 22.7386 23.7308 22.6067C23.5989 22.4749 23.5248 22.296 23.5248 22.1095V21.2365C23.5246 21.0756 23.4606 20.9213 23.3468 20.8075C23.233 20.6937 23.0787 20.6297 22.9178 20.6295H22.4047C22.2438 20.6296 22.0895 20.6936 21.9758 20.8075C21.862 20.9213 21.7981 21.0756 21.7979 21.2365V22.1095C21.7982 22.2704 21.8623 22.4245 21.976 22.5382C22.0897 22.6519 22.2439 22.7158 22.4047 22.716H22.9178C23.4515 22.7165 23.9632 22.9287 24.3407 23.306C24.7181 23.6834 24.9304 24.195 24.931 24.7287V25.6018C24.9304 26.0579 24.7751 26.5003 24.4905 26.8568C24.2059 27.2132 23.8089 27.4626 23.3642 27.5641V27.5641ZM38.2294 32.7457V43.0862C37.8406 43.2233 37.4636 43.3918 37.1022 43.5901C36.4835 43.9105 35.8441 44.2416 34.9631 44.2416H28.3868C28.0371 44.2418 27.6936 44.1493 27.3913 43.9736C27.0889 43.7978 26.8385 43.5451 26.6656 43.2411C26.4927 42.9372 26.4034 42.5928 26.4068 42.2431C26.4103 41.8934 26.5063 41.5509 26.6851 41.2504C26.3138 40.9515 26.0629 40.5286 25.9784 40.0596C25.8939 39.5905 25.9815 39.1066 26.2251 38.697C25.8538 38.3981 25.6028 37.9753 25.5184 37.5062C25.4339 37.0372 25.5216 36.5534 25.7654 36.1438C25.4463 35.8869 25.2147 35.5374 25.1026 35.1434C24.9905 34.7493 25.0035 34.3303 25.1396 33.9439C25.2758 33.5575 25.5284 33.2229 25.8628 32.9862C26.1971 32.7495 26.5967 32.6224 27.0063 32.6223H30.6063C29.9144 30.1433 30.4672 27.9473 32.2311 26.2265C32.2459 26.2124 32.261 26.1983 32.2774 26.1855C32.4432 26.0492 32.6378 25.9524 32.8465 25.9025C33.0552 25.8525 33.2725 25.8507 33.482 25.8972C34.0996 26.0319 34.5198 26.5153 34.5281 27.0997C34.535 27.6481 34.6259 28.6059 34.7976 29.9473C34.805 30.0057 34.8051 30.0647 34.7981 30.1231C34.7747 30.3089 34.7056 30.8684 35.9993 31.4047C36.7699 31.5848 37.5075 32.0278 38.2292 32.7457H38.2294Z" fill="#316AFF"/>
</g>
<defs>
<clipPath id="clip0_506_209">
<rect width="30" height="30" fill="white" transform="translate(14.9999 14.9999)"/>
</clipPath>
</defs>
</svg>
