<svg width="109" height="111" viewBox="0 0 109 111" fill="none" xmlns="http://www.w3.org/2000/svg">
<path d="M73.9363 74.373C73.2117 67.1575 74.8742 59.4943 78.6681 52.5609L79.8703 50.3641L61.3197 62.5766L59.7644 73.7914L52.5252 80.7891C54.0848 86.8806 54.1466 92.823 54.1466 92.823C66.4404 85.4038 73.9363 74.373 73.9363 74.373Z" fill="url(#paint0_linear_615_144)"/>
<path d="M54.1466 92.8242C54.1466 92.8242 54.1022 86.7937 52.5252 80.7903L55.5827 77.8355C56.5152 79.9125 58.3402 84.5544 58.7951 89.7038C57.3254 90.7646 55.7907 91.8538 54.1466 92.8242Z" fill="url(#paint1_linear_615_144)"/>
<path d="M75.7404 59.2483C76.5018 56.972 77.4809 54.7316 78.6669 52.5631L79.3405 51.3313C79.1792 51.2344 79.0145 51.1364 78.8488 51.0384L61.3195 62.5777L60.2689 70.1559C64.2665 68.5244 69.9222 65.1372 75.7404 59.2483Z" fill="url(#paint2_linear_615_144)"/>
<path d="M55.6079 31.1262C55.4302 30.6862 55.3057 30.3628 55.1508 29.9162C48.2387 33.2294 40.4158 34.1442 32.8755 32.7284C32.8755 32.7284 21.7363 40.0659 14.9054 53.0723C14.9054 53.0723 21.2792 53.6833 27.952 55.9749L34.7926 48.5546L45.8722 47.8957C48.3514 42.3672 51.3634 36.3748 55.6079 31.1262Z" fill="url(#paint3_linear_615_144)"/>
<path d="M14.9061 53.072C14.9061 53.072 21.2799 53.683 27.9526 55.9745L30.8769 52.803C28.5321 51.5842 23.4417 49.2034 17.8022 48.2242C16.7863 49.7392 15.8083 51.3544 14.9061 53.072Z" fill="url(#paint4_linear_615_144)"/>
<path d="M55.1517 29.9162C52.4571 32.0019 43.9843 40.2053 41.0373 48.1843L45.8731 47.8968C48.3512 42.3683 52.1051 36.2463 56.3496 30.9966L55.1517 29.9162Z" fill="url(#paint5_linear_615_144)"/>
<path d="M58.0695 28.3159C60.9483 33.0134 64.7282 37.6607 68.9586 41.8027C69.1601 41.9998 69.3626 42.197 69.5662 42.3919C73.1371 45.814 77.0079 48.8679 80.9134 51.289C80.9113 51.2912 80.9091 51.2934 80.9069 51.2956C81.2633 50.9492 81.6217 50.6062 81.9737 50.2511C92.1199 40.0481 97.9835 32.4089 103.033 22.6655C99.4273 15.6504 93.5094 9.69938 86.5323 6.07256C76.8433 11.1501 69.2467 17.0467 59.1006 27.2497C58.7497 27.6026 58.4096 27.962 58.0663 28.3192C58.0674 28.317 58.0684 28.317 58.0695 28.3159Z" fill="url(#paint6_linear_615_144)"/>
<path d="M103.033 22.6641C109.899 9.41589 109.027 2.32344 107.893 1.18312C106.759 0.0427907 99.7076 -0.832874 86.5322 6.07115C93.5092 9.69797 99.4271 15.649 103.033 22.6641Z" fill="url(#paint7_linear_615_144)"/>
<path d="M46.4539 62.9693C50.0994 66.6354 53.4461 69.307 54.345 69.3135C62.5059 65.7194 72.2664 59.6932 80.9147 51.2883C77.0092 48.8672 73.1383 45.8133 69.5674 42.3912C69.3638 42.1962 69.1613 42.0002 68.9599 41.802C64.7305 37.66 60.9495 33.0126 58.0708 28.3152C49.6976 37.0305 43.7148 46.8882 40.1537 55.1145C40.2988 56.123 42.9079 59.4046 46.4539 62.9693Z" fill="url(#paint8_linear_615_144)"/>
<path opacity="0.75" d="M46.4539 62.9693C50.0994 66.6354 53.4461 69.307 54.345 69.3135C62.5059 65.7194 72.2664 59.6932 80.9147 51.2883C77.0092 48.8672 73.1383 45.8133 69.5674 42.3912C69.3638 42.1962 69.1613 42.0002 68.9599 41.802C64.7305 37.66 60.9495 33.0126 58.0708 28.3152C49.6976 37.0305 43.7148 46.8882 40.1537 55.1145C40.2988 56.123 42.9079 59.4046 46.4539 62.9693Z" fill="url(#paint9_radial_615_144)"/>
<path opacity="0.5" d="M69.5663 42.3912C69.3627 42.1962 69.1601 42.0002 68.9587 41.802C64.7293 37.66 60.9483 33.0126 58.0695 28.3152C57.8583 28.5352 57.6558 28.7585 57.4468 28.9796C63.3105 40.1225 81.1811 50.7068 67.5355 56.3256C58.5775 60.0145 54.5647 64.3765 52.4116 68.268C53.3246 68.9324 54.0069 69.3103 54.3438 69.3125C62.5047 65.7183 72.2653 59.6921 80.9135 51.2873C77.008 48.8672 73.1382 45.8133 69.5663 42.3912Z" fill="url(#paint10_radial_615_144)"/>
<path d="M46.4536 62.9695C42.9077 59.4037 40.2986 56.1232 40.1523 55.1147L35.1313 57.3332C34.5388 57.929 37.8487 62.2213 42.5232 66.922C47.1977 71.6227 51.4671 74.95 52.0584 74.3553L54.3448 69.3137C53.4458 69.3072 50.0981 66.6355 46.4536 62.9695Z" fill="url(#paint11_linear_615_144)"/>
<path d="M46.4536 62.9695C42.9077 59.4037 40.2986 56.1232 40.1523 55.1147L35.1313 57.3332C34.5388 57.929 37.8487 62.2213 42.5232 66.922C47.1977 71.6227 51.4671 74.95 52.0584 74.3553L54.3448 69.3137C53.4458 69.3072 50.0981 66.6355 46.4536 62.9695Z" fill="url(#paint12_linear_615_144)"/>
<path d="M101.649 25.2463C101.697 25.1526 102.985 22.7587 103.034 22.665C99.4284 15.6499 93.5106 9.69885 86.5335 6.07203C86.4393 6.12104 86.3494 6.17223 86.2563 6.22124C93.086 10.1345 100.831 18.9315 101.649 25.2463Z" fill="url(#paint13_linear_615_144)"/>
<path opacity="0.75" d="M107.894 1.18424C106.76 0.0439128 99.7077 -0.831751 86.5323 6.07227C76.8432 11.1498 69.2466 17.0464 59.1005 27.2494C58.7496 27.6023 58.4095 27.9617 58.0662 28.3189C58.0672 28.3178 58.0683 28.3167 58.0694 28.3156C49.6963 37.032 43.7134 46.8886 40.1523 55.1149C40.2985 56.1234 42.9076 59.4039 46.4536 62.9697C50.0992 66.6357 53.4458 69.3074 54.3448 69.3139C62.5056 65.7198 72.2662 59.6936 80.9144 51.2887C80.9123 51.2909 80.9101 51.2931 80.9079 51.2953C81.2643 50.9489 81.6217 50.6059 81.9748 50.2508C92.1209 40.0478 97.9846 32.4086 103.034 22.6652C109.899 9.41591 109.027 2.32456 107.894 1.18424Z" fill="url(#paint14_radial_615_144)"/>
<path d="M13.1625 81.5897C5.63417 88.9195 15.5139 96.7907 0.361832 107.455C0.361832 107.455 9.27867 110.453 17.3486 100.24C20.1234 96.7275 23.3292 95.2518 23.3292 95.2518C24.4274 95.9107 23.5881 99.4852 19.6901 102.442C19.6901 102.442 25.7715 102.598 29.5709 98.7784C33.3703 94.9588 35.9534 89.4576 35.9534 89.4576C38.5549 94.0592 32.0414 99.8871 32.0414 99.8871C32.0414 99.8871 38.1899 98.2763 45.4832 90.941C51.1563 85.2361 55.1907 71.0578 47.0623 62.8838C38.934 54.7099 24.4101 56.2009 17.2933 63.3576C14.1784 66.4899 10.9888 71.3823 10.5794 75.4023C10.5794 75.4023 16.5709 68.8969 18.6894 71.6383C18.6894 71.6383 8.55519 77.7984 6.92626 83.6481C6.92735 83.6481 11.9712 80.6214 13.1625 81.5897Z" fill="url(#paint15_linear_615_144)"/>
<path d="M7.56295 87.1848C-0.323926 90.3705 4.75456 97.0208 1.36782 100.446C1.36782 100.446 5.90694 97.9498 5.83329 93.065C5.77373 89.0864 7.56295 87.1848 7.56295 87.1848Z" fill="url(#paint16_linear_615_144)"/>
<path d="M9.40614 110.311C11.4261 110.069 14.842 104.158 19.4797 105.14C19.4797 105.14 15.3218 111.228 9.40614 110.311Z" fill="url(#paint17_linear_615_144)"/>
<path opacity="0.5" d="M34.343 98.4402C36.8167 97.5101 41.0342 95.4168 45.4834 90.9426C50.4655 85.9325 54.619 71.7062 46.4549 63.4963C38.4749 55.4715 24.4828 57.091 17.7722 63.8404C15.3483 66.2779 12.7847 69.9255 11.7655 73.2974C13.2277 71.9883 15.3646 70.3731 17.157 70.2032C18.0765 70.1161 18.8325 70.4199 19.3426 71.0799L19.8549 71.7421L18.9668 72.2834C18.8791 72.3368 11.0052 77.1704 8.34416 82.0705C10.1691 81.136 12.7002 80.1067 13.7291 80.9432L14.314 81.4191L13.6295 82.0868C10.819 84.8227 10.6847 87.6556 10.5287 90.9339C10.3056 95.6161 10.0543 100.891 2.13389 107.004C4.82529 107.366 10.9922 107.191 16.7888 99.8539C19.6914 96.1803 23.0175 94.6217 23.1572 94.5574L23.5373 94.3832L23.833 94.5607C24.3832 94.8885 24.628 95.5899 24.5262 96.532C24.3865 97.8194 23.572 99.6829 21.7535 101.538C23.7345 101.282 26.8807 100.525 29.0934 98.2997C32.7184 94.6544 35.242 89.3285 35.2669 89.2751L35.9741 87.7688L36.6499 88.9636C38.4045 92.0687 36.4517 95.8557 34.343 98.4402Z" fill="url(#paint18_linear_615_144)"/>
<path d="M1.36911 100.446C3.59263 98.6272 5.86489 95.0734 5.83457 93.065C5.80641 91.2276 6.30786 88.6279 7.56421 87.1848C2.04927 89.5417 2.81175 93.2665 3.51465 95.1104C3.82116 95.9175 3.40635 98.319 1.36911 100.446Z" fill="url(#paint19_radial_615_144)"/>
<path d="M5.6514 105.913C16.1159 102.433 18.9178 90.4809 25.6588 88.4072C32.3997 86.3335 30.7026 92.8161 28.1076 95.7393C28.1076 95.7393 37.0038 86.7583 37.0591 79.7312C37.1143 72.7041 46.4817 83.6738 43.5758 89.3831C43.5758 89.3831 57.8907 74.9956 46.4546 63.4954C35.0186 51.9952 19.7864 63.4693 19.7864 63.4693C19.7864 63.4693 28.4574 63.1142 27.7079 69.4432C27.7079 69.4432 21.0168 71.9907 15.7553 76.2361C15.7553 76.2361 18.3405 76.5117 20.1092 79.1757C20.1092 79.1757 12.2407 84.6334 12.5516 89.3417C12.9523 95.3864 9.00239 104.799 5.6514 105.913Z" fill="url(#paint20_linear_615_144)"/>
<path d="M12.9709 96.8054C17.8663 95.5714 22.1769 84.0581 29.0413 84.6953C32.8353 85.0471 31.9569 88.3406 31.9569 88.3406C31.9569 88.3406 34.5898 84.57 35.1931 79.4718C35.7963 74.3736 45.2298 76.1173 44.8117 85.681C44.8117 85.681 55.1863 72.1147 42.6044 63.4986C28.7229 53.9926 18.5789 65.9252 18.5789 65.9252C18.5789 65.9252 28.0633 62.7482 29.5373 70.3209C29.5373 70.3209 21.6906 72.5166 18.8042 75.4202C18.8042 75.4202 22.1617 75.894 22.9632 79.5001C22.9632 79.5001 15.2312 85.1843 15.463 87.4432C16.0218 92.8954 12.9709 96.8054 12.9709 96.8054Z" fill="url(#paint21_linear_615_144)"/>
<path opacity="0.5" d="M13.1625 81.5897C5.63417 88.9195 15.5139 96.7907 0.361832 107.455C0.361832 107.455 9.27867 110.453 17.3486 100.24C20.1234 96.7275 23.3292 95.2518 23.3292 95.2518C24.4274 95.9107 23.5881 99.4852 19.6901 102.442C19.6901 102.442 25.7715 102.598 29.5709 98.7784C33.3703 94.9588 35.9534 89.4576 35.9534 89.4576C38.5549 94.0592 32.0414 99.8871 32.0414 99.8871C32.0414 99.8871 38.1899 98.2763 45.4832 90.941C51.1563 85.2361 55.1907 71.0578 47.0623 62.8838C38.934 54.7099 24.4101 56.2009 17.2933 63.3576C14.1784 66.4899 10.9888 71.3823 10.5794 75.4023C10.5794 75.4023 16.5709 68.8969 18.6894 71.6383C18.6894 71.6383 8.55519 77.7984 6.92626 83.6481C6.92735 83.6481 11.9712 80.6214 13.1625 81.5897Z" fill="url(#paint22_radial_615_144)"/>
<path opacity="0.5" d="M13.1625 81.5897C5.63417 88.9195 15.5139 96.7907 0.361832 107.455C0.361832 107.455 9.27867 110.453 17.3486 100.24C20.1234 96.7275 23.3292 95.2518 23.3292 95.2518C24.4274 95.9107 23.5881 99.4852 19.6901 102.442C19.6901 102.442 25.7715 102.598 29.5709 98.7784C33.3703 94.9588 35.9534 89.4576 35.9534 89.4576C38.5549 94.0592 32.0414 99.8871 32.0414 99.8871C32.0414 99.8871 38.1899 98.2763 45.4832 90.941C51.1563 85.2361 55.1907 71.0578 47.0623 62.8838C38.934 54.7099 24.4101 56.2009 17.2933 63.3576C14.1784 66.4899 10.9888 71.3823 10.5794 75.4023C10.5794 75.4023 16.5709 68.8969 18.6894 71.6383C18.6894 71.6383 8.55519 77.7984 6.92626 83.6481C6.92735 83.6481 11.9712 80.6214 13.1625 81.5897Z" fill="url(#paint23_radial_615_144)"/>
<path d="M41.6591 93.3438C48.9893 85.4912 53.145 71.4457 45.4877 63.7455C37.8305 56.0453 23.7399 62.5148 17.4852 68.3231C17.4852 68.3231 22.4597 66.2091 26.3977 68.7457C30.3357 71.2823 19.1011 75.6334 16.765 82.5396C16.765 82.5396 26.7844 76.4884 29.9231 79.0522C33.0618 81.616 29.8787 89.6734 26.8688 92.7002C26.8688 92.7002 34.0463 89.0091 37.9161 84.2419C43.8003 76.9937 41.6591 93.3438 41.6591 93.3438Z" fill="url(#paint24_radial_615_144)"/>
<path opacity="0.5" d="M13.1625 81.5897C5.63417 88.9195 15.5139 96.7907 0.361832 107.455C0.361832 107.455 9.27867 110.453 17.3486 100.24C20.1234 96.7275 23.3292 95.2518 23.3292 95.2518C24.4274 95.9107 23.5881 99.4852 19.6901 102.442C19.6901 102.442 25.7715 102.598 29.5709 98.7784C33.3703 94.9588 35.9534 89.4576 35.9534 89.4576C38.5549 94.0592 32.0414 99.8871 32.0414 99.8871C32.0414 99.8871 38.1899 98.2763 45.4832 90.941C51.1563 85.2361 55.1907 71.0578 47.0623 62.8838C38.934 54.7099 24.4101 56.2009 17.2933 63.3576C14.1784 66.4899 10.9888 71.3823 10.5794 75.4023C10.5794 75.4023 16.5709 68.8969 18.6894 71.6383C18.6894 71.6383 8.55519 77.7984 6.92626 83.6481C6.92735 83.6481 11.9712 80.6214 13.1625 81.5897Z" fill="url(#paint25_radial_615_144)"/>
<path opacity="0.5" d="M7.56295 87.1848C-0.323926 90.3705 4.75456 97.0208 1.36782 100.446C1.36782 100.446 5.90694 97.9498 5.83329 93.065C5.77373 89.0864 7.56295 87.1848 7.56295 87.1848Z" fill="url(#paint26_radial_615_144)"/>
<path d="M9.40614 110.31C11.4261 110.068 14.3904 105.927 19.4797 105.139C19.4797 105.139 15.3218 111.227 9.40614 110.31Z" fill="url(#paint27_radial_615_144)"/>
<path opacity="0.5" d="M9.40614 110.311C11.4261 110.069 14.842 104.158 19.4797 105.14C19.4797 105.14 15.3218 111.228 9.40614 110.311Z" fill="url(#paint28_radial_615_144)"/>
<path opacity="0.5" d="M13.1625 81.5897C5.63417 88.9195 15.5139 96.7907 0.361832 107.455C0.361832 107.455 9.27867 110.453 17.3486 100.24C20.1234 96.7275 23.3292 95.2518 23.3292 95.2518C24.4274 95.9107 23.5881 99.4852 19.6901 102.442C19.6901 102.442 25.7715 102.598 29.5709 98.7784C33.3703 94.9588 35.9534 89.4576 35.9534 89.4576C38.5549 94.0592 32.0414 99.8871 32.0414 99.8871C32.0414 99.8871 38.1899 98.2763 45.4832 90.941C51.1563 85.2361 55.1907 71.0578 47.0623 62.8838C38.934 54.7099 24.4101 56.2009 17.2933 63.3576C14.1784 66.4899 10.9888 71.3823 10.5794 75.4023C10.5794 75.4023 16.5709 68.8969 18.6894 71.6383C18.6894 71.6383 8.55519 77.7984 6.92626 83.6481C6.92735 83.6481 11.9712 80.6214 13.1625 81.5897Z" fill="url(#paint29_radial_615_144)"/>
<path opacity="0.25" d="M13.1625 81.5897C5.63417 88.9195 15.5139 96.7907 0.361832 107.455C0.361832 107.455 9.27867 110.453 17.3486 100.24C20.1234 96.7275 23.3292 95.2518 23.3292 95.2518C24.4274 95.9107 23.5881 99.4852 19.6901 102.442C19.6901 102.442 25.7715 102.598 29.5709 98.7784C33.3703 94.9588 35.9534 89.4576 35.9534 89.4576C38.5549 94.0592 32.0414 99.8871 32.0414 99.8871C32.0414 99.8871 38.1899 98.2763 45.4832 90.941C51.1563 85.2361 55.1907 71.0578 47.0623 62.8838C38.934 54.7099 24.4101 56.2009 17.2933 63.3576C14.1784 66.4899 10.9888 71.3823 10.5794 75.4023C10.5794 75.4023 16.5709 68.8969 18.6894 71.6383C18.6894 71.6383 8.55519 77.7984 6.92626 83.6481C6.92735 83.6481 11.9712 80.6214 13.1625 81.5897Z" fill="url(#paint30_radial_615_144)"/>
<path opacity="0.75" d="M13.1625 81.5897C5.63417 88.9195 15.5139 96.7907 0.361832 107.455C0.361832 107.455 9.27867 110.453 17.3486 100.24C20.1234 96.7275 23.3292 95.2518 23.3292 95.2518C24.4274 95.9107 23.5881 99.4852 19.6901 102.442C19.6901 102.442 25.7715 102.598 29.5709 98.7784C33.3703 94.9588 35.9534 89.4576 35.9534 89.4576C38.5549 94.0592 32.0414 99.8871 32.0414 99.8871C32.0414 99.8871 38.1899 98.2763 45.4832 90.941C51.1563 85.2361 55.1907 71.0578 47.0623 62.8838C38.934 54.7099 24.4101 56.2009 17.2933 63.3576C14.1784 66.4899 10.9888 71.3823 10.5794 75.4023C10.5794 75.4023 16.5709 68.8969 18.6894 71.6383C18.6894 71.6383 8.55519 77.7984 6.92626 83.6481C6.92735 83.6481 11.9712 80.6214 13.1625 81.5897Z" fill="url(#paint31_radial_615_144)"/>
<path opacity="0.75" d="M73.9363 74.373C73.2117 67.1575 74.8742 59.4943 78.6681 52.5609L79.8703 50.3641L61.3197 62.5766L59.7644 73.7914L52.5252 80.7891C54.0848 86.8806 54.1466 92.823 54.1466 92.823C66.4404 85.4038 73.9363 74.373 73.9363 74.373Z" fill="url(#paint32_radial_615_144)"/>
<path opacity="0.75" d="M55.6079 31.1262C55.4302 30.6862 55.3057 30.3628 55.1508 29.9162C48.2387 33.2294 40.4158 34.1442 32.8755 32.7284C32.8755 32.7284 21.7363 40.0659 14.9054 53.0723C14.9054 53.0723 21.2792 53.6833 27.952 55.9749L34.7926 48.5546L45.8722 47.8957C48.3514 42.3672 51.3634 36.3748 55.6079 31.1262Z" fill="url(#paint33_radial_615_144)"/>
<path d="M38.6771 79.491C49.4763 70.7343 57.9405 60.9451 58.1592 60.6902L56.4718 58.9933C56.4718 58.9933 47.6644 68.6747 37.1305 77.9575L38.6771 79.491Z" fill="url(#paint34_linear_615_144)"/>
<path d="M56.4719 58.9934C58.4334 55.2348 61.7562 50.5145 66.0029 45.4348C65.8989 45.3378 65.7938 45.2442 65.6909 45.1461C61.0879 49.5375 56.5369 53.5162 52.431 57.0275L47.6764 64.047L40.5098 71.1384C39.2686 74.3088 37.1306 77.9575 37.1306 77.9575C47.6645 68.6747 56.4719 58.9934 56.4719 58.9934Z" fill="url(#paint35_linear_615_144)"/>
<path d="M40.8714 74.5835C40.8779 74.5726 43.3873 70.0057 43.1567 68.5201L40.5097 71.1395C39.2685 74.3101 37.1305 77.9588 37.1305 77.9588C38.4075 76.8337 39.6573 75.702 40.8714 74.5835Z" fill="url(#paint36_linear_615_144)"/>
<path d="M58.1703 60.6783C59.5783 56.3522 62.7776 51.4914 66.8434 46.208C66.5618 45.9553 66.2824 45.695 66.0041 45.4347C61.7574 50.5145 58.4345 55.2348 56.4731 58.9934C56.4731 58.9934 47.6657 68.6748 37.1318 77.9575L38.6784 79.491C49.6195 70.6189 58.1703 60.6783 58.1703 60.6783Z" fill="url(#paint37_linear_615_144)"/>
<path d="M38.6771 79.491C49.4763 70.7343 57.9405 60.9451 58.1592 60.6902L56.4718 58.9933C56.4718 58.9933 47.6644 68.6747 37.1305 77.9575L38.6771 79.491Z" fill="url(#paint38_linear_615_144)"/>
<path opacity="0.75" d="M56.4719 58.9934C58.4334 55.2348 61.7562 50.5145 66.0029 45.4348C65.8989 45.3378 65.7938 45.2442 65.6909 45.1461C61.0879 49.5375 56.5369 53.5162 52.431 57.0275L47.6764 64.047L40.5098 71.1384C39.2686 74.3088 37.1306 77.9575 37.1306 77.9575C47.6645 68.6747 56.4719 58.9934 56.4719 58.9934Z" fill="url(#paint39_radial_615_144)"/>
<path opacity="0.75" d="M107.894 1.18424C106.76 0.0439128 99.7077 -0.831751 86.5323 6.07227C76.8432 11.1498 69.2466 17.0464 59.1005 27.2494C58.7496 27.6023 58.4095 27.9617 58.0662 28.3189C58.0672 28.3178 58.0683 28.3167 58.0694 28.3156C49.6963 37.032 43.7134 46.8886 40.1523 55.1149C40.2985 56.1234 42.9076 59.4039 46.4536 62.9697C50.0992 66.6357 53.4458 69.3074 54.3448 69.3139C62.5056 65.7198 72.2662 59.6936 80.9144 51.2887C80.9123 51.2909 80.9101 51.2931 80.9079 51.2953C81.2643 50.9489 81.6217 50.6059 81.9748 50.2508C92.1209 40.0478 97.9846 32.4086 103.034 22.6652C109.899 9.41591 109.027 2.32456 107.894 1.18424Z" fill="url(#paint40_radial_615_144)"/>
<path opacity="0.16" d="M100.171 27.8925C100.146 27.8925 100.121 27.8806 100.106 27.8588C99.2534 26.6575 98.3815 25.5052 97.4403 24.3354C97.4121 24.3006 97.4175 24.2494 97.4522 24.2222C97.4868 24.1938 97.5367 24.1993 97.5648 24.2341C98.5082 25.4071 99.3823 26.5627 100.236 27.7662C100.262 27.8021 100.253 27.8533 100.217 27.8795C100.203 27.8871 100.187 27.8925 100.171 27.8925Z" fill="black"/>
<path opacity="0.16" d="M101.072 19.0729C101.095 19.0348 101.085 18.9847 101.047 18.9607C101.01 18.9379 100.959 18.9477 100.935 18.9858C100.735 19.3038 100.528 19.6273 100.316 19.9551C94.9144 28.3121 89.3269 35.1377 80.4101 44.2701C77.5552 42.1931 74.7403 39.8133 72.1085 37.1678C70.3615 35.4111 68.7402 33.5661 67.2271 31.6895C76.4093 22.5582 83.2574 16.5124 91.0685 10.6484C91.4984 10.325 91.9208 10.0113 92.3335 9.70852C92.3692 9.68238 92.3768 9.63119 92.3508 9.59525C92.3248 9.55822 92.2739 9.5506 92.2382 9.57783C91.8255 9.88169 91.4042 10.1954 90.9721 10.5188C83.1589 16.3849 76.3064 22.4329 67.1242 31.5664C65.2051 29.1747 63.4797 26.7285 62.0555 24.2921C62.0328 24.2528 61.983 24.2398 61.945 24.2637C61.9061 24.2866 61.8941 24.3356 61.9169 24.3748C63.3476 26.8221 65.0816 29.2803 67.0094 31.6818C66.4224 32.2667 65.8571 32.8222 65.2505 33.4332C64.9733 33.7109 64.7014 33.9897 64.4296 34.2685L64.2076 34.4951C64.2054 34.4973 64.2043 34.4984 64.2032 34.5005C63.8686 34.8414 63.5371 35.1834 63.2079 35.5254C63.1776 35.557 63.1776 35.6082 63.2101 35.6398C63.2263 35.655 63.2469 35.6626 63.2664 35.6626C63.287 35.6626 63.3086 35.6539 63.3249 35.6376C63.6563 35.2934 63.9899 34.9503 64.3256 34.6062C64.3278 34.6051 64.3289 34.6029 64.3299 34.6018L64.5444 34.3829C64.8162 34.1041 65.0892 33.8264 65.3643 33.5486C65.9686 32.9409 66.5296 32.3887 67.1134 31.8071C68.6286 33.6837 70.2499 35.5298 71.9958 37.2865C74.6406 39.9451 77.4718 42.338 80.3429 44.4237C80.3462 44.4367 80.3332 44.4498 80.3429 44.4607C80.3581 44.4759 80.3798 44.4836 80.3993 44.4836C80.4058 44.4836 80.4101 44.4781 80.4155 44.477C81.8863 45.5422 83.3647 46.5518 84.8409 47.4242C84.8539 47.4319 84.868 47.4351 84.882 47.4351C84.9091 47.4351 84.9362 47.421 84.9514 47.3948C84.973 47.3556 84.9611 47.3066 84.9232 47.2837C83.4621 46.4211 82 45.4224 80.5433 44.3692C89.459 35.2368 95.0498 28.4068 100.453 20.0444C100.663 19.7155 100.87 19.392 101.072 19.0729Z" fill="black"/>
<path opacity="0.75" d="M52.0694 67.0265C59.4829 62.6819 68.6304 56.0382 77.231 47.5854C77.2289 47.5876 77.2267 47.5898 77.2245 47.592" fill="url(#paint41_radial_615_144)"/>
<path d="M85.224 29.2045C81.0922 33.0328 74.9848 33.0633 71.5819 29.2721C68.1789 25.4808 68.7692 19.3043 72.901 15.476C77.0329 11.6477 83.1402 11.6172 86.5432 15.4084C89.9461 19.1997 89.3558 25.3762 85.224 29.2045Z" fill="url(#paint42_linear_615_144)"/>
<path d="M83.4467 27.0648C80.0599 30.2036 75.0518 30.2287 72.2619 27.1203C69.4719 24.013 69.956 18.9485 73.3428 15.8107C76.7295 12.6718 81.7376 12.6468 84.5276 15.7552C87.3175 18.8625 86.8334 23.9259 83.4467 27.0648Z" fill="url(#paint43_linear_615_144)"/>
<path d="M82.6678 26.2226C79.6472 29.0217 75.1828 29.0435 72.6951 26.2727C70.2073 23.5019 70.6394 18.9864 73.659 16.1884C76.6785 13.3904 81.144 13.3675 83.6317 16.1383C86.1195 18.909 85.6885 23.4235 82.6678 26.2226Z" fill="url(#paint44_radial_615_144)"/>
<path opacity="0.5" d="M82.6678 26.2226C79.6472 29.0217 75.1828 29.0435 72.6951 26.2727C70.2073 23.5019 70.6394 18.9864 73.659 16.1884C76.6785 13.3904 81.144 13.3675 83.6317 16.1383C86.1195 18.909 85.6885 23.4235 82.6678 26.2226Z" fill="url(#paint45_radial_615_144)"/>
<path opacity="0.5" d="M83.0296 18.185C84.1701 19.455 84.782 21.0364 84.9033 22.6886C85.6149 20.3949 85.2239 17.9095 83.6318 16.1364C81.144 13.3656 76.6796 13.3874 73.6589 16.1865C73.3556 16.4675 73.0859 16.7692 72.8357 17.0807C76.242 15.0091 80.5028 15.3696 83.0296 18.185Z" fill="black"/>
<path d="M83.6329 16.1364C81.1451 13.3656 76.6808 13.3874 73.6601 16.1865C70.6394 18.9856 70.2084 23.5001 72.6962 26.2708C72.955 26.5584 73.2074 26.7718 73.0514 26.6248C70.8246 24.3855 71.507 19.7959 74.3782 16.9086C76.6591 14.6149 81.1072 13.7512 83.647 16.1538" fill="url(#paint46_linear_615_144)"/>
<path opacity="0.5" d="M83.6329 16.1381L83.647 16.1555C81.1072 13.7529 76.6591 14.6166 74.3782 16.9103C71.6326 19.6712 70.8951 23.982 72.7807 26.3128C73.0785 26.4642 73.1922 26.7615 73.0503 26.6275C72.9529 26.5295 72.8673 26.4206 72.7807 26.3128C72.7525 26.2986 72.7254 26.2845 72.6951 26.2725C75.1829 29.0432 79.6473 29.0215 82.6679 26.2224C85.6886 23.4244 86.1207 18.9099 83.6329 16.1381Z" fill="url(#paint47_radial_615_144)"/>
<path d="M103.078 22.6977C103.035 22.6977 102.993 22.6738 102.971 22.6324C99.3632 15.6118 93.5386 9.75116 86.5725 6.13088C86.513 6.10038 86.4902 6.02741 86.5205 5.96751C86.5509 5.9076 86.6245 5.88473 86.683 5.91523C93.6935 9.55948 99.5549 15.4561 103.185 22.5213C103.216 22.5812 103.193 22.6542 103.133 22.6847C103.116 22.6934 103.098 22.6977 103.078 22.6977Z" fill="#2D82FE"/>
<path d="M80.9133 51.4089C80.8916 51.4089 80.87 51.4035 80.8505 51.3904C77.0229 49.0183 73.0914 45.936 69.4826 42.478C69.279 42.2831 69.0754 42.0859 68.8739 41.8877C64.5741 37.6771 60.8029 33.0058 57.9663 28.3781C57.9317 28.3214 57.949 28.2463 58.0064 28.2114C58.0616 28.1766 58.1375 28.194 58.1721 28.2506C60.9978 32.8621 64.7572 37.517 69.0429 41.7135C69.2443 41.9106 69.4468 42.1066 69.6494 42.3016C73.2462 45.7476 77.1626 48.819 80.9761 51.1824C81.0335 51.2173 81.0508 51.2924 81.0162 51.349C80.9934 51.3883 80.9544 51.4089 80.9133 51.4089Z" fill="#2D82FE"/>
<defs>
<linearGradient id="paint0_linear_615_144" x1="42.6863" y1="95.8787" x2="75.8789" y2="60.2824" gradientUnits="userSpaceOnUse">
<stop stop-color="#BD2719"/>
<stop offset="0.2151" stop-color="#D41A10"/>
<stop offset="0.5049" stop-color="#EC0C07"/>
<stop offset="0.774" stop-color="#FA0302"/>
<stop offset="1" stop-color="#FF0000"/>
</linearGradient>
<linearGradient id="paint1_linear_615_144" x1="61.8683" y1="79.1149" x2="51.4603" y2="89.28" gradientUnits="userSpaceOnUse">
<stop stop-color="#FC8D41"/>
<stop offset="0.0900324" stop-color="#FC7837"/>
<stop offset="0.294" stop-color="#FD4D24"/>
<stop offset="0.4922" stop-color="#FE2C14"/>
<stop offset="0.6802" stop-color="#FF1409"/>
<stop offset="0.854" stop-color="#FF0502"/>
<stop offset="1" stop-color="#FF0000"/>
</linearGradient>
<linearGradient id="paint2_linear_615_144" x1="62.6401" y1="67.7771" x2="114.108" y2="8.45697" gradientUnits="userSpaceOnUse">
<stop stop-color="#BD2719"/>
<stop offset="0.2151" stop-color="#D41A10"/>
<stop offset="0.5049" stop-color="#EC0C07"/>
<stop offset="0.774" stop-color="#FA0302"/>
<stop offset="1" stop-color="#FF0000"/>
</linearGradient>
<linearGradient id="paint3_linear_615_144" x1="10.9442" y1="54.3433" x2="42.1698" y2="39.1041" gradientUnits="userSpaceOnUse">
<stop stop-color="#BD2719"/>
<stop offset="0.2151" stop-color="#D41A10"/>
<stop offset="0.5049" stop-color="#EC0C07"/>
<stop offset="0.774" stop-color="#FA0302"/>
<stop offset="1" stop-color="#FF0000"/>
</linearGradient>
<linearGradient id="paint4_linear_615_144" x1="28.7307" y1="45.2646" x2="18.8699" y2="56.9205" gradientUnits="userSpaceOnUse">
<stop stop-color="#FC8D41"/>
<stop offset="0.0900324" stop-color="#FC7837"/>
<stop offset="0.294" stop-color="#FD4D24"/>
<stop offset="0.4922" stop-color="#FE2C14"/>
<stop offset="0.6802" stop-color="#FF1409"/>
<stop offset="0.854" stop-color="#FF0502"/>
<stop offset="1" stop-color="#FF0000"/>
</linearGradient>
<linearGradient id="paint5_linear_615_144" x1="54.0311" y1="38.7706" x2="3.77803" y2="41.1074" gradientUnits="userSpaceOnUse">
<stop stop-color="#BD2719"/>
<stop offset="0.2151" stop-color="#D41A10"/>
<stop offset="0.5049" stop-color="#EC0C07"/>
<stop offset="0.774" stop-color="#FA0302"/>
<stop offset="1" stop-color="#FF0000"/>
</linearGradient>
<linearGradient id="paint6_linear_615_144" x1="72.2117" y1="17.1057" x2="92.5476" y2="37.3282" gradientUnits="userSpaceOnUse">
<stop stop-color="#BBCACC"/>
<stop offset="0.3717" stop-color="white"/>
<stop offset="1" stop-color="#99AFB3"/>
</linearGradient>
<linearGradient id="paint7_linear_615_144" x1="106.491" y1="15.7293" x2="95.4043" y2="1.42146" gradientUnits="userSpaceOnUse">
<stop stop-color="#008EE6"/>
<stop offset="0.688" stop-color="#80DAFE"/>
<stop offset="0.7325" stop-color="#76D5FB"/>
<stop offset="0.8071" stop-color="#5CC8F3"/>
<stop offset="0.9026" stop-color="#32B2E6"/>
<stop offset="1" stop-color="#0099D6"/>
</linearGradient>
<linearGradient id="paint8_linear_615_144" x1="67.7558" y1="61.1399" x2="44.646" y2="38.2822" gradientUnits="userSpaceOnUse">
<stop stop-color="#008EE6"/>
<stop offset="0.688" stop-color="#80DAFE"/>
<stop offset="0.7325" stop-color="#76D5FB"/>
<stop offset="0.8071" stop-color="#5CC8F3"/>
<stop offset="0.9026" stop-color="#32B2E6"/>
<stop offset="1" stop-color="#0099D6"/>
</linearGradient>
<radialGradient id="paint9_radial_615_144" cx="0" cy="0" r="1" gradientUnits="userSpaceOnUse" gradientTransform="translate(52.1492 68.7663) rotate(45.1602) scale(21.9287 40.1353)">
<stop stop-opacity="0.75"/>
<stop offset="1" stop-opacity="0"/>
</radialGradient>
<radialGradient id="paint10_radial_615_144" cx="0" cy="0" r="1" gradientUnits="userSpaceOnUse" gradientTransform="translate(77.633 63.586) rotate(45.1601) scale(21.9287 40.1353)">
<stop stop-opacity="0.75"/>
<stop offset="1" stop-opacity="0"/>
</radialGradient>
<linearGradient id="paint11_linear_615_144" x1="37.9994" y1="54.9188" x2="52.5164" y2="73.8737" gradientUnits="userSpaceOnUse">
<stop/>
<stop offset="0.1962" stop-color="#4D4D4C"/>
<stop offset="0.7655"/>
</linearGradient>
<linearGradient id="paint12_linear_615_144" x1="37.9994" y1="54.9188" x2="52.5164" y2="73.8737" gradientUnits="userSpaceOnUse">
<stop stop-opacity="0"/>
<stop offset="0.1975" stop-color="#CFDCDE" stop-opacity="0.5"/>
<stop offset="0.7655" stop-opacity="0"/>
</linearGradient>
<linearGradient id="paint13_linear_615_144" x1="68.1875" y1="9.71204" x2="101.261" y2="17.2218" gradientUnits="userSpaceOnUse">
<stop stop-color="#BBCACC"/>
<stop offset="0.3717" stop-color="white"/>
<stop offset="1" stop-color="#99AFB3"/>
</linearGradient>
<radialGradient id="paint14_radial_615_144" cx="0" cy="0" r="1" gradientUnits="userSpaceOnUse" gradientTransform="translate(78.0022 51.3642) rotate(44.3944) scale(14.1474 45.8199)">
<stop stop-color="#440063" stop-opacity="0.75"/>
<stop offset="1" stop-color="#420061" stop-opacity="0"/>
</radialGradient>
<linearGradient id="paint15_linear_615_144" x1="45.2626" y1="58.6361" x2="-6.33187" y2="126.369" gradientUnits="userSpaceOnUse">
<stop stop-color="#FF0000"/>
<stop offset="0.2317" stop-color="#FF1500"/>
<stop offset="0.7367" stop-color="#FF3D00"/>
<stop offset="0.9987" stop-color="#FF4C00"/>
</linearGradient>
<linearGradient id="paint16_linear_615_144" x1="35.422" y1="52.2366" x2="-15.5508" y2="119.154" gradientUnits="userSpaceOnUse">
<stop stop-color="#FF0000"/>
<stop offset="0.2317" stop-color="#FF1500"/>
<stop offset="0.7367" stop-color="#FF3D00"/>
<stop offset="0.9987" stop-color="#FF4C00"/>
</linearGradient>
<linearGradient id="paint17_linear_615_144" x1="49.8748" y1="60.6915" x2="-2.41247" y2="129.334" gradientUnits="userSpaceOnUse">
<stop stop-color="#FF0000"/>
<stop offset="0.2317" stop-color="#FF1500"/>
<stop offset="0.7367" stop-color="#FF3D00"/>
<stop offset="0.9987" stop-color="#FF4C00"/>
</linearGradient>
<linearGradient id="paint18_linear_615_144" x1="35.1123" y1="69.2993" x2="1.81984" y2="138.083" gradientUnits="userSpaceOnUse">
<stop stop-color="#FF8000"/>
<stop offset="0.6388" stop-color="#FF5B00"/>
<stop offset="0.9987" stop-color="#FF4C00"/>
</linearGradient>
<radialGradient id="paint19_radial_615_144" cx="0" cy="0" r="1" gradientUnits="userSpaceOnUse" gradientTransform="translate(-11.8868 105.267) rotate(-134.84) scale(26.683 33.8827)">
<stop offset="0.00134333" stop-color="#FFED1C" stop-opacity="0.6"/>
<stop offset="0.9477" stop-color="#FFED1C" stop-opacity="0.0264782"/>
<stop offset="0.9914" stop-color="#FFED1C" stop-opacity="0"/>
</radialGradient>
<linearGradient id="paint20_linear_615_144" x1="8.3575" y1="110.357" x2="38.3536" y2="67.5852" gradientUnits="userSpaceOnUse">
<stop stop-color="#FF8000"/>
<stop offset="0.022669" stop-color="#FE7F02" stop-opacity="0.9773"/>
<stop offset="0.6663" stop-color="#ED582A" stop-opacity="0.3337"/>
<stop offset="1" stop-color="#E74939" stop-opacity="0"/>
</linearGradient>
<linearGradient id="paint21_linear_615_144" x1="42.5623" y1="65.9554" x2="15.5056" y2="90.0618" gradientUnits="userSpaceOnUse">
<stop stop-color="#FFBC47"/>
<stop offset="0.1869" stop-color="#FFB137" stop-opacity="0.8131"/>
<stop offset="0.7223" stop-color="#FF940F" stop-opacity="0.2777"/>
<stop offset="1" stop-color="#FF8900" stop-opacity="0"/>
</linearGradient>
<radialGradient id="paint22_radial_615_144" cx="0" cy="0" r="1" gradientUnits="userSpaceOnUse" gradientTransform="translate(35.8581 73.0208) rotate(-134.84) scale(20.6408 21.2752)">
<stop offset="0.00134333" stop-color="#FFBC47"/>
<stop offset="0.2941" stop-color="#FFBF4B" stop-opacity="0.7068"/>
<stop offset="0.5624" stop-color="#FEC656" stop-opacity="0.4382"/>
<stop offset="0.8201" stop-color="#FCD368" stop-opacity="0.1801"/>
<stop offset="1" stop-color="#FBE07A" stop-opacity="0"/>
</radialGradient>
<radialGradient id="paint23_radial_615_144" cx="0" cy="0" r="1" gradientUnits="userSpaceOnUse" gradientTransform="translate(35.0984 73.7847) rotate(-134.84) scale(20.0047 20.6196)">
<stop offset="0.00134333" stop-color="white"/>
<stop offset="1" stop-color="white" stop-opacity="0"/>
</radialGradient>
<radialGradient id="paint24_radial_615_144" cx="0" cy="0" r="1" gradientUnits="userSpaceOnUse" gradientTransform="translate(44.5935 76.6764) rotate(-134.84) scale(24.5744 36.3369)">
<stop offset="0.00134333" stop-color="#FFED1C" stop-opacity="0.6"/>
<stop offset="0.9477" stop-color="#FFED1C" stop-opacity="0.0264782"/>
<stop offset="0.9914" stop-color="#FFED1C" stop-opacity="0"/>
</radialGradient>
<radialGradient id="paint25_radial_615_144" cx="0" cy="0" r="1" gradientUnits="userSpaceOnUse" gradientTransform="translate(35.1113 73.7776) rotate(-42.887) scale(9.85871 6.30946)">
<stop offset="0.00134333" stop-color="white"/>
<stop offset="1" stop-color="white" stop-opacity="0"/>
</radialGradient>
<radialGradient id="paint26_radial_615_144" cx="0" cy="0" r="1" gradientUnits="userSpaceOnUse" gradientTransform="translate(1.93603 101.043) rotate(-134.84) scale(8.81585 11.1946)">
<stop offset="0.00134333" stop-color="#FFED1C"/>
<stop offset="0.1997" stop-color="#FFEE2B" stop-opacity="0.8013"/>
<stop offset="0.5839" stop-color="#FFF254" stop-opacity="0.4167"/>
<stop offset="1" stop-color="#FFF686" stop-opacity="0"/>
</radialGradient>
<radialGradient id="paint27_radial_615_144" cx="0" cy="0" r="1" gradientUnits="userSpaceOnUse" gradientTransform="translate(15.986 107.531) rotate(162.506) scale(8.50617 1.72901)">
<stop offset="0.00134333" stop-color="#FFED1C" stop-opacity="0.6"/>
<stop offset="0.9477" stop-color="#FFED1C" stop-opacity="0.0264782"/>
<stop offset="0.9914" stop-color="#FFED1C" stop-opacity="0"/>
</radialGradient>
<radialGradient id="paint28_radial_615_144" cx="0" cy="0" r="1" gradientUnits="userSpaceOnUse" gradientTransform="translate(9.97393 111.57) rotate(-41.1779) scale(8.13432 2.5864)">
<stop offset="0.00134333" stop-color="#FFED1C"/>
<stop offset="0.1997" stop-color="#FFEE2B" stop-opacity="0.8013"/>
<stop offset="0.5839" stop-color="#FFF254" stop-opacity="0.4167"/>
<stop offset="1" stop-color="#FFF686" stop-opacity="0"/>
</radialGradient>
<radialGradient id="paint29_radial_615_144" cx="0" cy="0" r="1" gradientUnits="userSpaceOnUse" gradientTransform="translate(2.30455 103.45) rotate(-134.84) scale(27.508 34.9303)">
<stop offset="0.00134333" stop-color="#FF4C00"/>
<stop offset="0.135" stop-color="#FF5B0C" stop-opacity="0.8661"/>
<stop offset="0.3941" stop-color="#FF842C" stop-opacity="0.6067"/>
<stop offset="0.7491" stop-color="#FFC45F" stop-opacity="0.2512"/>
<stop offset="1" stop-color="#FFF686" stop-opacity="0"/>
</radialGradient>
<radialGradient id="paint30_radial_615_144" cx="0" cy="0" r="1" gradientUnits="userSpaceOnUse" gradientTransform="translate(13.4371 74.5122) rotate(-134.84) scale(14.6008 18.5404)">
<stop offset="0.00134333" stop-color="#FFED1C"/>
<stop offset="0.1997" stop-color="#FFEE2B" stop-opacity="0.8013"/>
<stop offset="0.5839" stop-color="#FFF254" stop-opacity="0.4167"/>
<stop offset="1" stop-color="#FFF686" stop-opacity="0"/>
</radialGradient>
<radialGradient id="paint31_radial_615_144" cx="0" cy="0" r="1" gradientUnits="userSpaceOnUse" gradientTransform="translate(35.0707 75.1871) rotate(-134.84) scale(30.5321 38.7703)">
<stop offset="0.00134333" stop-color="#FFED1C"/>
<stop offset="0.1997" stop-color="#FFEE2B" stop-opacity="0.8013"/>
<stop offset="0.5839" stop-color="#FFF254" stop-opacity="0.4167"/>
<stop offset="1" stop-color="#FFF686" stop-opacity="0"/>
</radialGradient>
<radialGradient id="paint32_radial_615_144" cx="0" cy="0" r="1" gradientUnits="userSpaceOnUse" gradientTransform="translate(37.9272 91.3599) rotate(45.1602) scale(44.7633 44.7626)">
<stop offset="0.00134333" stop-color="#FFED1C"/>
<stop offset="0.1997" stop-color="#FFEE2B" stop-opacity="0.8013"/>
<stop offset="0.5839" stop-color="#FFF254" stop-opacity="0.4167"/>
<stop offset="1" stop-color="#FFF686" stop-opacity="0"/>
</radialGradient>
<radialGradient id="paint33_radial_615_144" cx="0" cy="0" r="1" gradientUnits="userSpaceOnUse" gradientTransform="translate(33.4913 73.5152) rotate(45.1603) scale(48.1474 48.1466)">
<stop offset="0.00134333" stop-color="#FFED1C"/>
<stop offset="0.1997" stop-color="#FFEE2B" stop-opacity="0.8013"/>
<stop offset="0.5839" stop-color="#FFF254" stop-opacity="0.4167"/>
<stop offset="1" stop-color="#FFF686" stop-opacity="0"/>
</radialGradient>
<linearGradient id="paint34_linear_615_144" x1="36.2503" y1="76.5843" x2="74.3598" y2="52.1498" gradientUnits="userSpaceOnUse">
<stop stop-color="#BD2719"/>
<stop offset="0.2151" stop-color="#D41A10"/>
<stop offset="0.5049" stop-color="#EC0C07"/>
<stop offset="0.774" stop-color="#FA0302"/>
<stop offset="1" stop-color="#FF0000"/>
</linearGradient>
<linearGradient id="paint35_linear_615_144" x1="30.0801" y1="77.8834" x2="49.7515" y2="62.9898" gradientUnits="userSpaceOnUse">
<stop stop-color="#BD2719"/>
<stop offset="0.2151" stop-color="#D41A10"/>
<stop offset="0.5049" stop-color="#EC0C07"/>
<stop offset="0.774" stop-color="#FA0302"/>
<stop offset="1" stop-color="#FF0000"/>
</linearGradient>
<linearGradient id="paint36_linear_615_144" x1="48.7152" y1="65.2565" x2="37.4429" y2="75.7266" gradientUnits="userSpaceOnUse">
<stop stop-color="#FC8D41"/>
<stop offset="0.0900324" stop-color="#FC7837"/>
<stop offset="0.294" stop-color="#FD4D24"/>
<stop offset="0.4922" stop-color="#FE2C14"/>
<stop offset="0.6802" stop-color="#FF1409"/>
<stop offset="0.854" stop-color="#FF0502"/>
<stop offset="1" stop-color="#FF0000"/>
</linearGradient>
<linearGradient id="paint37_linear_615_144" x1="48.3477" y1="72.5552" x2="61.7704" y2="34.3588" gradientUnits="userSpaceOnUse">
<stop stop-color="#BD2719"/>
<stop offset="0.2151" stop-color="#D41A10"/>
<stop offset="0.5049" stop-color="#EC0C07"/>
<stop offset="0.774" stop-color="#FA0302"/>
<stop offset="1" stop-color="#FF0000"/>
</linearGradient>
<linearGradient id="paint38_linear_615_144" x1="36.2503" y1="76.5843" x2="74.3598" y2="52.1498" gradientUnits="userSpaceOnUse">
<stop stop-color="#BD2719"/>
<stop offset="0.2151" stop-color="#D41A10"/>
<stop offset="0.5049" stop-color="#EC0C07"/>
<stop offset="0.774" stop-color="#FA0302"/>
<stop offset="1" stop-color="#FF0000"/>
</linearGradient>
<radialGradient id="paint39_radial_615_144" cx="0" cy="0" r="1" gradientUnits="userSpaceOnUse" gradientTransform="translate(35.9579 73.2688) rotate(-39.2068) scale(33.7163 11.3194)">
<stop offset="0.00134333" stop-color="#FFED1C"/>
<stop offset="0.1997" stop-color="#FFEE2B" stop-opacity="0.8013"/>
<stop offset="0.5839" stop-color="#FFF254" stop-opacity="0.4167"/>
<stop offset="1" stop-color="#FFF686" stop-opacity="0"/>
</radialGradient>
<radialGradient id="paint40_radial_615_144" cx="0" cy="0" r="1" gradientUnits="userSpaceOnUse" gradientTransform="translate(68.2432 28.2311) rotate(44.3944) scale(14.1474 45.8199)">
<stop stop-color="white" stop-opacity="0.5"/>
<stop offset="1" stop-color="white" stop-opacity="0"/>
</radialGradient>
<radialGradient id="paint41_radial_615_144" cx="0" cy="0" r="1" gradientUnits="userSpaceOnUse" gradientTransform="translate(65.1165 60.6933) rotate(44.0246) scale(3.43489 16.4963)">
<stop stop-color="#440063" stop-opacity="0.75"/>
<stop offset="1" stop-color="#420061" stop-opacity="0"/>
</radialGradient>
<linearGradient id="paint42_linear_615_144" x1="73.7389" y1="33.8678" x2="84.4449" y2="10.9425" gradientUnits="userSpaceOnUse">
<stop stop-color="#BD2719"/>
<stop offset="0.2151" stop-color="#D41A10"/>
<stop offset="0.5049" stop-color="#EC0C07"/>
<stop offset="0.774" stop-color="#FA0302"/>
<stop offset="1" stop-color="#FF0000"/>
</linearGradient>
<linearGradient id="paint43_linear_615_144" x1="81.2995" y1="11.7414" x2="75.4637" y2="31.0082" gradientUnits="userSpaceOnUse">
<stop stop-color="#FC8D41"/>
<stop offset="0.0900324" stop-color="#FC7837"/>
<stop offset="0.294" stop-color="#FD4D24"/>
<stop offset="0.4922" stop-color="#FE2C14"/>
<stop offset="0.6802" stop-color="#FF1409"/>
<stop offset="0.854" stop-color="#FF0502"/>
<stop offset="1" stop-color="#FF0000"/>
</linearGradient>
<radialGradient id="paint44_radial_615_144" cx="0" cy="0" r="1" gradientUnits="userSpaceOnUse" gradientTransform="translate(75.483 21.4658) rotate(45.1565) scale(18.7085 18.707)">
<stop stop-color="#512D00"/>
<stop offset="1"/>
</radialGradient>
<radialGradient id="paint45_radial_615_144" cx="0" cy="0" r="1" gradientUnits="userSpaceOnUse" gradientTransform="translate(79.0725 17.7939) scale(16.3675 16.4594)">
<stop offset="0.4873" stop-color="#F5CBC0" stop-opacity="0"/>
<stop offset="1" stop-color="#E67E62"/>
</radialGradient>
<linearGradient id="paint46_linear_615_144" x1="77.557" y1="15.4784" x2="78.2619" y2="3.03611" gradientUnits="userSpaceOnUse">
<stop stop-color="#BD2719"/>
<stop offset="0.0422031" stop-color="#B42717"/>
<stop offset="0.257" stop-color="#89250F"/>
<stop offset="0.4654" stop-color="#682408"/>
<stop offset="0.6634" stop-color="#502304"/>
<stop offset="0.8464" stop-color="#412201"/>
<stop offset="1" stop-color="#3C2200"/>
</linearGradient>
<radialGradient id="paint47_radial_615_144" cx="0" cy="0" r="1" gradientUnits="userSpaceOnUse" gradientTransform="translate(55.9816 13.7641) scale(22.195 22.3194)">
<stop stop-color="white" stop-opacity="0.5"/>
<stop offset="1" stop-color="white" stop-opacity="0"/>
</radialGradient>
</defs>
</svg>
