<svg width="35" height="35" viewBox="0 0 35 35" fill="none" xmlns="http://www.w3.org/2000/svg">
<path d="M28.4375 10.9375H26.7723C26.657 10.6123 26.5245 10.2934 26.3771 9.9826L27.5542 8.80501C27.7592 8.59993 27.8746 8.32169 27.8746 8.03169C27.8746 7.7417 27.7592 7.46346 27.5542 7.25838L24.4609 4.16458C24.0337 3.73733 23.3415 3.73733 22.9143 4.16458L21.7361 5.34164C21.4253 5.19371 21.107 5.0618 20.7812 4.94644V3.28125C20.7812 2.67723 20.2921 2.1875 19.6875 2.1875H15.3125C14.7085 2.1875 14.2188 2.67723 14.2188 3.28125V4.94644C13.893 5.0618 13.5747 5.19371 13.2639 5.34164L12.0863 4.16458C11.659 3.73734 10.9669 3.73734 10.5396 4.16458L7.44583 7.25838C7.01859 7.68562 7.01859 8.37776 7.44583 8.80501L8.62289 9.9826C8.47496 10.2934 8.34305 10.6117 8.22769 10.9375H6.5625C5.95848 10.9375 5.46875 11.4272 5.46875 12.0312V15.3125H12.1415C12.0697 14.959 12.0312 14.5934 12.0312 14.2188C12.0312 11.1985 14.4797 8.75 17.5 8.75C20.5203 8.75 22.9688 11.1985 22.9688 14.2188C22.9688 14.5934 22.9303 14.959 22.8585 15.3125H29.5312V12.0312C29.5312 11.4272 29.0421 10.9375 28.4375 10.9375Z" fill="#5B46FF"/>
<path d="M21.875 14.2188C21.875 11.8025 19.9163 9.84375 17.5 9.84375C15.0837 9.84375 13.125 11.8025 13.125 14.2188C13.125 14.5987 13.1886 14.961 13.2797 15.3125H21.7203C21.8114 14.961 21.875 14.5987 21.875 14.2188Z" fill="#5B46FF"/>
<path d="M14.2188 25.1562V29.5312C14.2188 30.1353 13.7291 30.625 13.125 30.625H6.5625C5.95841 30.625 5.46875 30.1353 5.46875 29.5312V25.1562H2.1875V30.625C2.1875 31.8331 3.16689 32.8125 4.375 32.8125H30.625C31.8331 32.8125 32.8125 31.8331 32.8125 30.625V25.1562H14.2188ZM20.2344 30.625C19.3283 30.625 18.5938 29.8905 18.5938 28.9844C18.5938 28.0783 19.3283 27.3438 20.2344 27.3438C21.1405 27.3438 21.875 28.0783 21.875 28.9844C21.875 29.8905 21.1405 30.625 20.2344 30.625ZM24.6094 30.625C23.7033 30.625 22.9688 29.8905 22.9688 28.9844C22.9688 28.0783 23.7033 27.3438 24.6094 27.3438C25.5155 27.3438 26.25 28.0783 26.25 28.9844C26.25 29.8905 25.5155 30.625 24.6094 30.625ZM28.9844 30.625C28.0783 30.625 27.3438 29.8905 27.3438 28.9844C27.3438 28.0783 28.0783 27.3438 28.9844 27.3438C29.8905 27.3438 30.625 28.0783 30.625 28.9844C30.625 29.8905 29.8905 30.625 28.9844 30.625Z" fill="#5B46FF"/>
<path d="M30.625 16.4062H4.375C3.16689 16.4062 2.1875 17.3856 2.1875 18.5938V24.0625H5.46875V21.875H7.65625C8.26034 21.875 8.75 21.3853 8.75 20.7812V18.5938H13.125C13.7291 18.5938 14.2188 19.0834 14.2188 19.6875V24.0625H32.8125V18.5938C32.8125 17.3856 31.8331 16.4062 30.625 16.4062ZM7.65625 20.7812H5.46875L7.65625 18.5938V20.7812ZM20.2344 21.875C19.3283 21.875 18.5938 21.1405 18.5938 20.2344C18.5938 19.3283 19.3283 18.5938 20.2344 18.5938C21.1405 18.5938 21.875 19.3283 21.875 20.2344C21.875 21.1405 21.1405 21.875 20.2344 21.875ZM24.6094 21.875C23.7033 21.875 22.9688 21.1405 22.9688 20.2344C22.9688 19.3283 23.7033 18.5938 24.6094 18.5938C25.5155 18.5938 26.25 19.3283 26.25 20.2344C26.25 21.1405 25.5155 21.875 24.6094 21.875ZM28.9844 21.875C28.0783 21.875 27.3438 21.1405 27.3438 20.2344C27.3438 19.3283 28.0783 18.5938 28.9844 18.5938C29.8905 18.5938 30.625 19.3283 30.625 20.2344C30.625 21.1405 29.8905 21.875 28.9844 21.875Z" fill="#5B46FF"/>
<path d="M12.5781 24.0625H7.10938C6.8071 24.0625 6.5625 23.8179 6.5625 23.5156C6.5625 23.2133 6.8071 22.9688 7.10938 22.9688H12.5781C12.8804 22.9688 13.125 23.2133 13.125 23.5156C13.125 23.8179 12.8804 24.0625 12.5781 24.0625Z" fill="#5B46FF"/>
<path d="M12.5781 26.25H7.10938C6.8071 26.25 6.5625 26.0054 6.5625 25.7031C6.5625 25.4008 6.8071 25.1562 7.10938 25.1562H12.5781C12.8804 25.1562 13.125 25.4008 13.125 25.7031C13.125 26.0054 12.8804 26.25 12.5781 26.25Z" fill="#5B46FF"/>
<path d="M12.5781 28.4375H7.10938C6.8071 28.4375 6.5625 28.1929 6.5625 27.8906C6.5625 27.5883 6.8071 27.3438 7.10938 27.3438H12.5781C12.8804 27.3438 13.125 27.5883 13.125 27.8906C13.125 28.1929 12.8804 28.4375 12.5781 28.4375Z" fill="#5B46FF"/>
</svg>
