<svg width="38" height="70" viewBox="0 0 38 70" fill="none" xmlns="http://www.w3.org/2000/svg">
<circle cx="19.7006" cy="14.0926" r="6.07749" stroke="#EEEEEE" stroke-opacity="0.8" stroke-width="2"/>
<circle cx="19.7006" cy="14.0926" r="1.91426" stroke="#EEEEEE" stroke-opacity="0.8" stroke-width="2"/>
<path d="M2.63135 67.6595L5.82316 65.0228L19.9781 21.3089L17.3414 20.3375L16.0925 19.6436L14.9823 18.6722L1.38239 63.6351L2.63135 67.6595ZM2.63135 67.6595L2.21503 69.0473M35.3821 66.8269L36.4923 63.6351L24.4189 18.9497L22.3373 20.1987L19.9781 20.7538L31.9127 65.0228L35.3821 66.8269ZM35.3821 66.8269L35.7984 68.2146M18.0353 7.70902C17.9891 6.1825 17.9243 2.93518 18.0353 2.15804C18.1741 1.18662 21.0883 0.909074 21.921 1.88049V7.70902H18.0353Z" stroke="#EEEEEE" stroke-opacity="0.8" stroke-width="2"/>
</svg>
