<svg width="60" height="60" viewBox="0 0 60 60" fill="none" xmlns="http://www.w3.org/2000/svg">
<rect width="60" height="60" rx="30" fill="#FB6238" fill-opacity="0.12"/>
<path fill-rule="evenodd" clip-rule="evenodd" d="M40.4841 39.2023H42.6539V39.8728H40.4841V39.2023ZM40.4841 37.8572H43.616V38.5277H40.4841V37.8572ZM40.4841 36.5161H43.616V37.1867H40.4841V36.5161ZM39.1265 34.2589V43.0047H44.957V34.2589H39.1265ZM32.4297 34.2589V43.0047H38.2602V34.2589H32.4297ZM31.0887 32.9388H46.3147V44.3457H40.4841C40.483 44.5239 40.4115 44.6945 40.2851 44.8201C40.1587 44.9457 39.9877 45.0162 39.8095 45.0163H37.573C37.3981 45.0119 37.2318 44.9394 37.1096 44.8141C36.9875 44.6888 36.9191 44.5207 36.9192 44.3457H31.0887V32.9388ZM31.5051 27.9412C33.3685 27.9479 35.2207 28.2286 37.0025 28.7741C39.2187 29.3589 41.3081 30.3472 43.1662 31.6894H29.8393V41.2681H19.1319C19.8397 40.905 20.4065 40.3166 20.7428 39.5957C21.0792 38.8748 21.1659 38.0624 20.9894 37.2867C20.8161 36.6337 20.4591 36.0442 19.9608 35.588C19.4626 35.1318 18.8439 34.828 18.1782 34.7128V34.6046C18.189 34.0894 18.3141 33.5829 18.5446 33.122C18.7751 32.661 19.1052 32.2571 19.5109 31.9393C21.4818 30.5241 23.6786 29.4538 26.0078 28.7741C27.7951 28.2534 29.6438 27.9733 31.5052 27.9412H31.5051ZM12.6537 23.866C12.7587 23.8312 12.8731 23.8396 12.9719 23.8892C13.0707 23.9388 13.1458 24.0256 13.1806 24.1306L16.9538 35.5167C17.306 35.4361 17.6707 35.4268 18.0266 35.4894C18.3824 35.5519 18.7221 35.685 19.0257 35.8809C19.3293 36.0768 19.5906 36.3314 19.7943 36.6299C19.9979 36.9283 20.1398 37.2645 20.2115 37.6186C20.2832 37.9727 20.2833 38.3376 20.2118 38.6917C20.1403 39.0459 19.9987 39.3821 19.7952 39.6807C19.5918 39.9792 19.3306 40.2341 19.0272 40.4301C18.7237 40.6262 18.3841 40.7596 18.0283 40.8223C16.4665 41.2098 15.6044 41.4264 14.9464 38.8027C14.3758 36.5037 14.9631 36.0498 16.1625 35.7125L12.3893 24.3928C12.3721 24.3408 12.3652 24.286 12.3692 24.2314C12.3732 24.1768 12.3878 24.1235 12.4124 24.0746C12.437 24.0257 12.4709 23.9821 12.5123 23.9463C12.5537 23.9105 12.6018 23.8832 12.6537 23.866H12.6537ZM31.5051 12.9484C32.823 12.9484 34.1113 13.3392 35.2071 14.0714C36.3029 14.8036 37.157 15.8442 37.6614 17.0618C38.1657 18.2794 38.2977 19.6192 38.0405 20.9118C37.7834 22.2044 37.1488 23.3917 36.2169 24.3236C35.285 25.2555 34.0977 25.8901 32.8051 26.1473C31.5125 26.4044 30.1727 26.2724 28.9551 25.7681C27.7375 25.2637 26.6968 24.4096 25.9647 23.3138C25.2325 22.218 24.8417 20.9297 24.8417 19.6118C24.8417 17.8446 25.5437 16.1497 26.7933 14.9C28.043 13.6504 29.7379 12.9484 31.5051 12.9484V12.9484Z" fill="#FB6238"/>
</svg>
